<?xml version="1.0" encoding="utf-8"?>
<!-- Generator: Adobe Illustrator 21.1.0, SVG Export Plug-In . SVG Version: 6.00 Build 0)  -->
<svg version="1.1" id="Layer_1" xmlns="http://www.w3.org/2000/svg" xmlns:xlink="http://www.w3.org/1999/xlink" x="0px" y="0px"
	 viewBox="0 0 300 300" style="enable-background:new 0 0 300 300;" xml:space="preserve">
<style type="text/css">
	.st0{fill:#9500FF;}
	.st1{fill:#FFCA05;}
</style>
<g>
	<g>
		<polygon class="st0" points="100.3,32.1 83,32.1 111.3,3.8 139.7,32.1 122.3,32.1 122.3,225.3 139.7,242.6 139.7,296.2 
			111.3,267.8 83,296.2 83,242.6 100.3,225.3 		"/>
	</g>
	<g>
		<g>
			<path class="st1" d="M121,128.8l-20.3,9v21.2l45.2-18.8l-13-16.7L121,128.8z M174.4,128.2l51.2-23.8V79.8l-64.8,30.9l-31.8-40.9
				v35.5l99,128.1H256L174.4,128.2z"/>
		</g>
	</g>
	<g>
		<path class="st1" d="M150,31.1c61.2,0,110.8,49.6,110.8,110.8c0,23-7,44.3-19,62l12,15.5c16.2-21.6,25.8-48.5,25.8-77.5
			C279.7,70.5,221.5,12.3,150,12.3c-6.5,0-12.9,0.5-19.2,1.5l17.4,17.4C148.9,31.1,149.4,31.1,150,31.1z"/>
		<path class="st1" d="M20.4,141.9c0,44,22.1,82.9,55.7,106.4v-8.5l8.5-8.5c-27.5-20.2-45.4-52.7-45.4-89.4
			c0-40.5,21.8-75.9,54.2-95.2V39H71.3C40.4,62.7,20.4,100,20.4,141.9z"/>
		<path class="st1" d="M224.9,240.3l-7.8-10.2c-18.6,14.2-41.8,22.5-67,22.5c-1.2,0-2.4-0.1-3.5-0.1v18.8c1.2,0,2.4,0.1,3.5,0.1
			c32.2,0,61.5-11.8,84.2-31.2L224.9,240.3L224.9,240.3z"/>
	</g>
</g>
</svg>
