<?xml version="1.0" encoding="utf-8"?>
<!-- Generator: Adobe Illustrator 21.1.0, SVG Export Plug-In . SVG Version: 6.00 Build 0)  -->
<svg version="1.1" id="Layer_1" xmlns="http://www.w3.org/2000/svg" xmlns:xlink="http://www.w3.org/1999/xlink" x="0px" y="0px"
	 viewBox="0 0 300 300" style="enable-background:new 0 0 300 300;" xml:space="preserve">
<style type="text/css">
	.st0{fill:#9500FF;}
	.st1{fill:#FFCA05;}
</style>
<g>
	<path class="st1" d="M75.2,198.5c-0.7,0.1-1.5-0.1-2.1-0.6c-0.6-0.5-0.9-1.2-0.9-2v-97H55.9v124.8l5.5-1.4
		c13.5-3.5,40-8.8,66.4-4.3l19.6,3.4L131,210.1C107.3,193.9,75.5,198.4,75.2,198.5z"/>
	<path class="st1" d="M81.6,76.4l-4.2,0.2v116.3l4.5-0.2c1.4-0.1,2.8-0.1,4.2-0.1c6.4,0,12.6,0.6,18.6,1.6
		c14.3,2.6,26.1,8.1,35.3,16.4l7.3,6.6V106.5l-0.6-1C130.2,77.3,95.7,75.8,81.6,76.4z"/>
	<path class="st1" d="M195.2,194.3c9.2-1.7,17.5-1.8,22.8-1.6l4.5,0.2V76.6l-4.2-0.2c-14.1-0.6-48.7,1-65.2,29l-0.6,1v110.8l7.3-6.6
		C169.1,202.4,180.9,196.9,195.2,194.3z"/>
	<path class="st1" d="M227.8,98.9v97c0,0.8-0.3,1.5-0.9,2c-0.6,0.5-1.3,0.7-2.1,0.6c-0.3,0-32.3-4.4-55.8,11.7l-16.4,11.2l19.6-3.4
		c26.4-4.5,52.9,0.7,66.4,4.3l5.5,1.4V98.9H227.8z"/>
</g>
<g>
	<path class="st1" d="M236.8,229c-2.2-0.6-4.7-1.2-7.4-1.8c-20.1,20.7-48.3,33.5-79.4,33.5c-23,0-44.3-7-62-19l0,0
		c-6.3-4.2-12.1-9.1-17.3-14.5c-2.7,0.6-5.2,1.2-7.4,1.8l-13.1,3.4c9,10.8,19.6,20.2,31.5,27.6l0-0.1c19.9,12.4,43.3,19.5,68.4,19.5
		c1,0,2.1,0,3.1,0l0,0c0.1,0,0.2,0,0.2,0c0,0,0,0,0,0c1.1,0,2.2,0,3.2-0.1c14.4-0.7,28.1-3.8,40.7-8.8c0.1,0,0.2-0.1,0.2-0.1
		c0.9-0.3,1.7-0.7,2.6-1.1c0.1-0.1,0.3-0.1,0.4-0.2c0.8-0.3,1.6-0.7,2.4-1c0.2-0.1,0.4-0.2,0.5-0.2c0.7-0.3,1.5-0.7,2.2-1
		c0.2-0.1,0.4-0.2,0.6-0.3c0.7-0.3,1.4-0.7,2.1-1.1c0.2-0.1,0.4-0.2,0.6-0.3c0.7-0.4,1.4-0.7,2.1-1.1c0.2-0.1,0.4-0.2,0.6-0.3
		c0.7-0.4,1.5-0.8,2.2-1.2c0.3-0.2,0.6-0.3,0.9-0.5c0.7-0.4,1.3-0.8,2-1.2c0.6-0.3,1.1-0.7,1.7-1c0.3-0.2,0.5-0.3,0.8-0.5
		c0.6-0.4,1.2-0.8,1.8-1.2c0.2-0.1,0.4-0.2,0.6-0.4c0.7-0.4,1.3-0.9,1.9-1.3c0.1-0.1,0.3-0.2,0.4-0.3c0.7-0.5,1.4-1,2-1.5
		c0.1,0,0.1-0.1,0.2-0.1c8.7-6.4,16.6-13.9,23.5-22.2L236.8,229z"/>
	<path class="st1" d="M279.6,149.7c0-1.3,0-2.7-0.1-4.1c0-0.4,0-0.8,0-1.2c0-0.4,0-0.7,0-1.1c0-0.7-0.1-1.5-0.1-2.2
		c0-0.3,0-0.7-0.1-1c-3-40.2-24.3-74.9-55.2-96.5c0,0-0.1,0-0.1-0.1c-0.9-0.6-1.8-1.2-2.7-1.8c-0.2-0.2-0.5-0.3-0.7-0.5
		c-0.7-0.4-1.4-0.9-2.1-1.3c-0.4-0.2-0.7-0.4-1.1-0.7c-0.6-0.3-1.1-0.7-1.7-1c-0.5-0.3-0.9-0.5-1.4-0.8c-0.4-0.2-0.8-0.4-1.2-0.7
		c-2.3-1.3-4.7-2.6-7.2-3.7c-0.1,0-0.1-0.1-0.2-0.1c-0.9-0.4-1.8-0.8-2.6-1.2c-0.1,0-0.2-0.1-0.3-0.1c-0.9-0.4-1.8-0.8-2.8-1.2
		c0,0,0,0,0,0C184.7,24,167.7,20.4,150,20.4c-44,0-82.9,22.1-106.4,55.7h0.1c-14.6,21-23.2,46.3-23.2,73.5c0,0.1,0,0.3,0,0.4
		c0,0.8,0,1.5,0,2.3c0,0.2,0,0.3,0,0.5c0,1.2,0.1,2.4,0.1,3.7c0,0.1,0,0.1,0,0.2c0,0.1,0,0.2,0,0.4c0.1,1.1,0.1,2.2,0.2,3.3
		c0,0.2,0,0.4,0.1,0.7c0.2,2.5,0.5,5,0.9,7.5c0,0.3,0.1,0.5,0.1,0.8c0.1,1,0.3,1.9,0.5,2.9c0.1,0.3,0.1,0.6,0.2,0.9
		c0.2,1.1,0.4,2.3,0.7,3.4c0.1,0.4,0.2,0.8,0.3,1.2c0.2,0.7,0.3,1.4,0.5,2.1c0.1,0.6,0.3,1.1,0.4,1.7c0.1,0.5,0.3,1,0.4,1.5
		c0.6,2.4,1.3,4.8,2.1,7.1c0,0.1,0.1,0.2,0.1,0.2c4.9,15,12.5,28.7,22.1,40.6v-35.5c-1-2.3-2-4.6-2.9-7c-0.1-0.1-0.1-0.3-0.2-0.4
		c-1-2.8-2-5.7-2.8-8.7c-0.1-0.2-0.1-0.5-0.2-0.7c-0.2-0.9-0.5-1.8-0.7-2.7c-0.1-0.3-0.2-0.7-0.2-1c-0.4-1.9-0.8-3.8-1.2-5.8
		c0,0,0-0.1,0-0.1c-0.1-0.8-0.2-1.5-0.4-2.3c-0.1-0.6-0.2-1.2-0.3-1.7c-0.1-0.7-0.2-1.4-0.3-2.1c-0.1-0.8-0.2-1.6-0.2-2.3
		c-0.1-0.6-0.1-1.2-0.2-1.8c-0.1-1.2-0.2-2.4-0.2-3.6c0-0.5,0-1.1-0.1-1.6c0-1-0.1-1.9-0.1-2.9c0-0.5,0-1,0-1.4c0-1,0.1-1.9,0.1-2.9
		h0c1.1-36.8,20.4-69.3,49.4-88.7l0-0.1c15.6-10.4,34-17,53.9-18.3l0.1,0.1c0.6,0,1.2-0.1,1.8-0.1c29.2-1.5,56.4,8.5,77.1,25.9
		c0.3,0.3,0.7,0.5,1,0.8c0.3,0.2,0.6,0.5,0.8,0.7c0.6,0.6,1.2,1.1,1.9,1.7c0.1,0.1,0.2,0.2,0.3,0.3c7.7,7.2,14.3,15.4,19.7,24.5h0.1
		c8.9,15,14.5,32.3,15.4,51c0.1,1.3,0.1,2.5,0.1,3.8l-0.1,0.1c0,0.6,0,1.2,0,1.8c0,16.2-3.5,31.5-9.7,45.4v35.7
		c2.3-2.9,4.5-5.9,6.6-8.9l0,0c0.5-0.8,1-1.5,1.5-2.3c0,0,0.1-0.1,0.1-0.1c0.5-0.7,0.9-1.5,1.4-2.2c0.2-0.3,0.4-0.7,0.6-1
		c0.3-0.4,0.5-0.9,0.8-1.3c0.3-0.4,0.5-0.9,0.8-1.3c0.2-0.3,0.4-0.6,0.5-1c0.3-0.5,0.6-1.1,0.9-1.6c0,0,0-0.1,0-0.1
		c1.2-2.2,2.3-4.4,3.3-6.6c0-0.1,0.1-0.1,0.1-0.2c0.3-0.7,0.7-1.5,1-2.2c0,0,0-0.1,0-0.1c1.7-3.8,3.2-7.8,4.5-11.8
		c0-0.1,0-0.1,0.1-0.2c1-3.1,1.9-6.2,2.7-9.4c0.1-0.2,0.1-0.4,0.2-0.7c0.1-0.6,0.3-1.2,0.4-1.9c0.1-0.3,0.2-0.7,0.2-1
		c0.1-0.6,0.2-1.1,0.4-1.7c0.1-0.4,0.2-0.9,0.2-1.3c0.1-0.5,0.2-1,0.3-1.5c0.2-0.9,0.3-1.8,0.5-2.7c0.1-0.3,0.1-0.7,0.1-1
		c0.1-0.7,0.2-1.3,0.3-2c0-0.4,0.1-0.7,0.1-1.1c0.1-0.7,0.2-1.3,0.2-2c0-0.3,0.1-0.7,0.1-1c0.1-0.8,0.1-1.6,0.2-2.4
		c0-0.2,0-0.4,0.1-0.6c0.1-1,0.1-2.1,0.2-3.1c0,0,0,0,0-0.1c0.1-1,0.1-2,0.1-3c0-0.3,0-0.5,0-0.8c0-0.8,0-1.5,0-2.3
		c0-0.2,0-0.4,0-0.5C279.6,149.9,279.6,149.8,279.6,149.7z"/>
</g>
</svg>
