<?xml version="1.0" encoding="utf-8"?>
<!-- Generator: Adobe Illustrator 21.1.0, SVG Export Plug-In . SVG Version: 6.00 Build 0)  -->
<svg version="1.1" id="Layer_1" xmlns="http://www.w3.org/2000/svg" xmlns:xlink="http://www.w3.org/1999/xlink" x="0px" y="0px"
	 viewBox="0 0 300 300" style="enable-background:new 0 0 300 300;" xml:space="preserve">
<style type="text/css">
	.st0{fill:#9500FF;}
	.st1{fill:#FFCA05;}
</style>
<path class="st1" d="M242.6,57.4C217.9,32.6,185,19,150,19S82.1,32.6,57.4,57.4C32.6,82.1,19,115,19,150c0,35,13.6,67.9,38.4,92.6
	C82.1,267.4,115,281,150,281c17.7,0,34.8-3.5,51-10.3l1.4-0.6l-7.4-17.5l-1.4,0.6c-13.8,5.8-28.5,8.8-43.6,8.8
	c-61.7,0-112-50.2-112-112C38,88.3,88.3,38,150,38s112,50.2,112,112c0,26.4-16.1,38.4-31,38.4c-14.9,0-31-12-31-38.4
	c0-27.6-22.4-50-50-50s-50,22.4-50,50s22.4,50,50,50c15.1,0,29-6.6,38.5-18.2c2.2,3.9,4.8,7.5,7.7,10.6c9.2,9.6,21.5,14.9,34.7,14.9
	c13.2,0,25.6-5.3,34.7-14.9c10-10.5,15.3-25.2,15.3-42.5C281,115,267.4,82.1,242.6,57.4z M150,181c-17.1,0-31-13.9-31-31
	c0-17.1,13.9-31,31-31s31,13.9,31,31C181,167.1,167.1,181,150,181z"/>
</svg>
