<?xml version="1.0" encoding="utf-8"?>
<!-- Generator: Adobe Illustrator 22.1.0, SVG Export Plug-In . SVG Version: 6.00 Build 0)  -->
<svg version="1.1" id="Layer_1" xmlns="http://www.w3.org/2000/svg" xmlns:xlink="http://www.w3.org/1999/xlink" x="0px" y="0px"
	 viewBox="0 0 792 775.7" style="enable-background:new 0 0 792 775.7;" xml:space="preserve">
<style type="text/css">
	.Drop_x0020_Shadow{fill:none;}
	.Round_x0020_Corners_x0020_2_x0020_pt{fill:#FFFFFF;stroke:#000000;stroke-miterlimit:10;}
	.Live_x0020_Reflect_x0020_X{fill:none;}
	.Bevel_x0020_Soft{fill:url(#SVGID_1_);}
	.Dusk{fill:#FFFFFF;}
	.Foliage_GS{fill:#FFDD00;}
	.Pompadour_GS{fill-rule:evenodd;clip-rule:evenodd;fill:#44ADE2;}
</style>
<linearGradient id="SVGID_1_" gradientUnits="userSpaceOnUse" x1="0" y1="0" x2="0.7071" y2="0.7071">
	<stop  offset="0" style="stop-color:#DEDFE3"/>
	<stop  offset="0.1738" style="stop-color:#D8D9DD"/>
	<stop  offset="0.352" style="stop-color:#C9CACD"/>
	<stop  offset="0.5323" style="stop-color:#B4B5B8"/>
	<stop  offset="0.7139" style="stop-color:#989A9C"/>
	<stop  offset="0.8949" style="stop-color:#797C7E"/>
	<stop  offset="1" style="stop-color:#656B6C"/>
</linearGradient>
<g>
	<path d="M282.1,470.8c-3.3,3.6-7.3,6.3-12,8.2c-4.4,1.8-9.1,2.7-13.9,2.7h-69.1l19.3,49h49.9c11.7,0,22.6-2.4,32.8-6.8
		c10.6-4.7,19.7-10.7,27.3-18.7c7.7-7.7,13.8-16.5,18.2-27c4.4-10.2,6.6-21.2,6.6-32.8c0-53.1-40.7-85-84.9-85H139.4l19.1,48.2h97.7
		c5.1,0,9.8,1.2,14.6,3.1c4.4,1.8,8,4.8,11.3,8.1c3.3,3.3,5.8,7.3,7.7,11.7c1.8,4.4,2.9,9.1,2.9,13.9c0,4.7-1.1,9.5-2.9,13.9
		C288,463.5,285.4,467.5,282.1,470.8z"/>
	<path d="M106.7,382c0-26,3.5-51.1,10-75h-53c-5.4,24.9-8.3,49.2-8.3,74.7c0,53.5,12.5,104.1,34.7,149.1h58.4
		C122,487.5,106.7,436.5,106.7,382z"/>
	<path d="M698.3,240h-57.8c24,41.8,37.8,90.3,37.8,141.9c0,54.5-15.3,105.5-41.8,148.8H695c22.1-44.9,34.6-95.4,34.6-148.8
		C729.6,331.3,718.4,283.2,698.3,240z"/>
	<path d="M270.8,290.8c4.4,1.8,8,5,11.3,8.3c3.3,3.3,5.8,7.4,7.7,11.8c1.8,4.4,2.9,9.2,2.9,13.9c0,4.2-0.9,8.5-2.4,12.5
		c15.3,5.7,29.8,13.5,43,23.3c0.4-1,0.9-1.9,1.3-2.9c4.4-10.2,6.6-21.1,6.6-32.7c0-53.1-40.7-84.8-84.9-84.8H86.7
		c-7.1,15.4-13,31.2-17.7,47.2h187.2C261.4,287.3,266.1,289,270.8,290.8z"/>
	<path d="M472,299.6c14.9-8.5,31.6-12.9,49.4-12.9c13.6,0,27.1,2.6,40.2,7.7c13.1,5.2,24.8,12.5,34.8,21.8l5.9,5.5l30.5-38.8
		l-5.3-4.7c-13.7-12.1-30.1-21.7-48.7-28.7c-18.6-7-37.9-10.5-57.4-10.5c-27.6,0-53.1,6.4-75.9,19c-22.9,12.6-41.1,30.2-54.3,52.1
		c-13.2,22-19.9,46.5-19.9,72.9c0,26.4,6.6,51,19.7,73.2c13.1,22.2,31.1,40,53.7,52.7c22.6,12.8,47.8,19.2,74.8,19.2
		c18.7,0,37.8-3.4,56.7-10c18.9-6.6,35.7-15.7,49.9-27l2.8-2.2V379.1h-85.9l-29.3,47.6h67.7v35.9c-8.5,5.2-17.6,9.5-27.3,12.5
		c-10.9,3.5-21.7,5.2-32.2,5.2c-17.8,0-34.4-4.4-49.4-13c-15-8.7-27-20.6-35.8-35.4c-8.8-14.8-13.2-31.2-13.2-48.7
		c0-17.5,4.4-33.9,13-48.5C445.1,319.9,457,308.1,472,299.6z"/>
	<path d="M158.2,218.3h468.5h31.2h29.3C629.7,114.9,519.2,45,392.5,45C265.8,45,155.6,115.3,98,218.3h16.8H158.2z M392.5,96.2
		c87.6,0,165.9,39.4,218.3,101.4H174.2C226.6,135.6,304.9,96.2,392.5,96.2z"/>
	<path d="M621.8,552.5H163.1h-40.6h-20.7C160.4,652.1,268.6,719,392.5,719c123.9,0,232.2-66.8,290.8-166.4h-25.3H621.8z
		 M392.5,667.8c-83.8,0-159.2-36.1-211.4-93.5h422.9C551.6,631.7,476.3,667.8,392.5,667.8z"/>
</g>
</svg>
