<?xml version="1.0" encoding="utf-8"?>
<!-- Generator: Adobe Illustrator 22.1.0, SVG Export Plug-In . SVG Version: 6.00 Build 0)  -->
<svg version="1.1" id="Layer_1" xmlns="http://www.w3.org/2000/svg" xmlns:xlink="http://www.w3.org/1999/xlink" x="0px" y="0px"
	 viewBox="0 0 412 136.8" style="enable-background:new 0 0 412 136.8;" xml:space="preserve">
<style type="text/css">
	.st0{fill:url(#SVGID_1_);}
</style>
<linearGradient id="SVGID_1_" gradientUnits="userSpaceOnUse" x1="366.4717" y1="133.6638" x2="44.4717" y2="11.6638">
	<stop  offset="0" style="stop-color:#5E5E5E"/>
	<stop  offset="1" style="stop-color:#A1A1A1"/>
</linearGradient>
<path class="st0" d="M119.5,125.4h33.6v9.6h-44.2v-77h10.6V125.4z M299.7,108.9l17.9,26.1h-12.1l-15.3-24.2
	c-1.8,0.1-3.2,0.2-4.3,0.2h-19.6v24h-10.6v-77h30.1c9.7,0,17.3,2.3,22.6,6.8c5.3,4.5,8,10.9,8,19.2c0,6.2-1.4,11.5-4.3,15.7
	C309.3,103.9,305.1,107,299.7,108.9z M301.1,97c3.5-2.9,5.3-7.2,5.3-12.8c0-5.5-1.8-9.7-5.3-12.5c-3.5-2.8-8.6-4.2-15.2-4.2h-19.6
	v33.9h19.6C292.5,101.4,297.6,99.9,301.1,97z M381.7,57.9l-23.3,39.3l-23.8-39.3h-10.8l29.2,51v26h10.6v-26.4l28.8-50.6H381.7z
	 M178.2,71.3c6.1-4.5,13.5-7,21.3-7c7.9,0,15.3,2.5,21.4,7c0.1,0.1,0.7,0.2,0.8,0.2h10.4c-1.8-2.4-3.9-4.7-6.2-6.7
	c-2.3-2-4.9-3.7-7.6-5.1c-5.7-2.9-12.1-4.6-18.7-4.6c-6.6,0-13.1,1.6-18.7,4.6c-2.7,1.4-5.3,3.1-7.6,5.1c-2.3,2-4.4,4.2-6.2,6.7
	h10.3C177.5,71.4,178.1,71.3,178.2,71.3z M45.1,70.6c4.6-2.6,9.7-4,15.2-4c4.2,0,8.3,0.8,12.3,2.4c4,1.6,7.5,3.8,10.6,6.7l6-7.7
	c-3.7-3.3-8.2-5.9-13.3-7.8c-5.1-1.9-10.3-2.9-15.7-2.9c-7.6,0-14.4,1.7-20.7,5.2c-6.2,3.4-11.1,8.2-14.7,14.1
	c-3.6,6-5.4,12.6-5.4,19.7c0,7.2,1.8,13.8,5.3,19.8c3.6,6,8.4,10.8,14.6,14.3c6.2,3.5,12.9,5.2,20.3,5.2c5.1,0,10.3-0.9,15.5-2.7
	c5.2-1.8,9.7-4.3,13.6-7.4V97.3h-9.1h-0.2H67.7l-5.8,9.3h17.6v13.5c-2.9,1.9-6,3.4-9.3,4.5c-3.3,1.1-6.6,1.6-9.8,1.6
	c-5.5,0-10.6-1.3-15.2-4c-4.6-2.7-8.3-6.3-11-10.9c-2.7-4.6-4.1-9.6-4.1-15c0-5.4,1.3-10.4,4-15C36.9,76.8,40.5,73.2,45.1,70.6z
	 M165.2,116.8c-3.8-6.3-5.9-13.5-5.9-21s2-14.7,5.9-21h69.1c3.8,6.3,5.9,13.5,5.9,21c0,7.4-2,14.7-5.9,21H165.2z M168.7,95.8
	c0,5.8,1.6,11.4,4.6,16.3l0.2,0.3H226l0.2-0.3c3-4.9,4.6-10.5,4.6-16.3s-1.6-11.4-4.6-16.3l-0.2-0.3h-52.5l-0.2,0.3
	C170.3,84.4,168.7,90.1,168.7,95.8z M225.2,126.9c2.2-1.9,4.3-4,6.1-6.3h-9.6c-0.2,0.2-0.6,0.3-0.8,0.5c-6.2,4.5-13.5,6.9-21.2,6.9
	c-7.7,0-15.1-2.4-21.3-6.9c-0.2-0.2-0.6-0.3-0.8-0.5h-9.6c1.8,2.3,3.8,4.4,6.1,6.3c2.2,1.9,4.7,3.5,7.3,4.8
	c5.7,2.9,11.9,4.4,18.4,4.4c6.5,0,12.7-1.5,18.4-4.4C220.5,130.4,223,128.8,225.2,126.9z M54.2,9.3H39V45h15.9
	c1.9,0,3.7-0.2,5.3-0.7c1.6-0.4,3-1.1,4.1-1.9c1.1-0.8,2-1.9,2.6-3.1c0.6-1.2,0.9-2.6,0.9-4.1c0-1.2-0.2-2.3-0.6-3.3s-1-1.8-1.6-2.5
	c-0.7-0.7-1.5-1.3-2.4-1.8c-0.9-0.5-1.9-0.9-3-1.2c0.7-0.3,1.4-0.7,2.1-1.1c0.7-0.5,1.3-1,1.8-1.7c0.5-0.7,1-1.5,1.3-2.3
	c0.3-0.9,0.5-1.9,0.5-3.1c0-1.4-0.3-2.6-0.8-3.7c-0.5-1.1-1.3-2-2.3-2.8c-1-0.8-2.2-1.4-3.7-1.8C57.6,9.5,56,9.3,54.2,9.3z
	 M53.6,25.2H43.1V12.8h10.8c2.5,0,4.5,0.5,5.9,1.6c1.4,1.1,2,2.5,2,4.3c0,2.1-0.8,3.7-2.3,4.8C58,24.6,56,25.2,53.6,25.2z M55,41.4
	h-12V28.8h11.3c3.1,0,5.5,0.5,7.1,1.6s2.4,2.6,2.4,4.6c0,2.1-0.8,3.6-2.3,4.8C59.9,40.9,57.8,41.4,55,41.4z M116.1,9h-3.8L96,45h4.1
	l4.2-9.4h19.5L128,45h4.3L116.1,9z M122.3,32H106l8.2-18.2L122.3,32z M186.2,37.9L163.6,9.3h-3.8V45h3.9V15.7L186.9,45h3.2V9.3h-3.9
	V37.9z M251.4,27.1c0-2.5-0.5-4.9-1.4-7c-0.9-2.2-2.2-4.1-3.9-5.7c-1.7-1.6-3.7-2.9-6-3.8c-2.3-0.9-4.9-1.4-7.7-1.4H220V45h12.4
	c2.8,0,5.4-0.5,7.7-1.4c2.3-0.9,4.3-2.2,6-3.8c1.7-1.6,3-3.5,3.9-5.7C251,32,251.4,29.6,251.4,27.1z M247.2,27.2c0,2-0.3,3.9-1,5.6
	c-0.7,1.7-1.7,3.2-3,4.5c-1.3,1.3-2.8,2.3-4.7,3c-1.8,0.7-3.9,1.1-6.1,1.1h-8.4V13h8.4c2.2,0,4.3,0.4,6.1,1.1s3.4,1.7,4.7,3
	c1.3,1.3,2.3,2.8,3,4.5C246.9,23.4,247.2,25.2,247.2,27.2z M309.3,9.3h-25.8V45h26.1v-3.7h-22.1V28.8H307v-3.7h-19.5V12.9h21.8V9.3z
	 M373,27.1c0-2.5-0.5-4.9-1.4-7c-0.9-2.2-2.2-4.1-3.9-5.7c-1.7-1.6-3.7-2.9-6-3.8c-2.3-0.9-4.9-1.4-7.7-1.4h-12.4V45H354
	c2.8,0,5.4-0.5,7.7-1.4c2.3-0.9,4.3-2.2,6-3.8c1.7-1.6,3-3.5,3.9-5.7C372.5,32,373,29.6,373,27.1z M368.8,27.2c0,2-0.3,3.9-1,5.6
	c-0.7,1.7-1.7,3.2-3,4.5c-1.3,1.3-2.8,2.3-4.7,3c-1.8,0.7-3.9,1.1-6.1,1.1h-8.4V13h8.4c2.2,0,4.3,0.4,6.1,1.1s3.4,1.7,4.7,3
	c1.3,1.3,2.3,2.8,3,4.5C368.4,23.4,368.8,25.2,368.8,27.2z"/>
</svg>
