<?xml version="1.0" standalone="no"?>
<!DOCTYPE svg PUBLIC "-//W3C//DTD SVG 20010904//EN"
 "http://www.w3.org/TR/2001/REC-SVG-20010904/DTD/svg10.dtd">
<svg version="1.0" xmlns="http://www.w3.org/2000/svg"
 width="792.000000pt" height="792.000000pt" viewBox="0 0 792.000000 792.000000"
 preserveAspectRatio="xMidYMid meet">
<metadata>
Created by potrace 1.11, written by Peter Selinger 2001-2013
</metadata>
<g transform="translate(0.000000,792.000000) scale(0.100000,-0.100000)"
fill="#000000" stroke="none">
<path d="M3698 7375 c-2 -2 -37 -6 -78 -10 -94 -7 -137 -12 -175 -19 -28 -5
-49 -8 -130 -21 -16 -3 -50 -9 -75 -15 -25 -5 -54 -11 -65 -14 -56 -12 -161
-41 -250 -68 -55 -18 -104 -33 -110 -34 -9 -2 -138 -54 -215 -87 -14 -6 -27
-11 -30 -12 -3 -1 -27 -12 -55 -25 -27 -13 -53 -23 -57 -22 -5 1 -8 -3 -8 -8
0 -6 -5 -10 -12 -10 -29 0 -425 -237 -502 -301 -6 -5 -40 -32 -76 -60 -215
-169 -412 -361 -552 -539 -23 -30 -45 -57 -48 -60 -22 -21 -177 -247 -215
-315 -16 -27 -32 -52 -35 -55 -3 -3 -11 -15 -18 -27 l-12 -23 2945 0 c2929 0
2946 0 2935 20 -70 132 -311 474 -342 488 -5 2 -8 8 -8 12 0 18 -296 321 -381
390 -17 14 -43 36 -57 48 -46 41 -204 157 -299 220 -178 117 -400 233 -598
312 -11 4 -42 17 -70 28 -48 19 -204 70 -235 77 -8 2 -15 4 -15 5 0 1 -7 3
-15 5 -152 38 -222 54 -254 59 -21 4 -42 8 -46 11 -4 2 -27 7 -51 9 -24 3 -53
7 -64 10 -11 2 -49 7 -85 11 -36 4 -81 10 -100 12 -41 5 -537 12 -542 8z m497
-519 c22 -3 65 -8 95 -12 83 -10 89 -11 175 -28 151 -29 220 -47 350 -91 178
-60 201 -69 345 -138 47 -23 88 -40 93 -39 4 1 7 -3 7 -8 0 -6 6 -10 14 -10 7
0 19 -7 26 -15 7 -8 16 -13 20 -10 5 3 11 1 15 -4 3 -6 32 -25 65 -43 33 -18
60 -36 60 -40 0 -5 5 -8 10 -8 17 0 181 -118 289 -208 74 -61 341 -327 341
-339 0 -9 -4335 -11 -4344 -3 -15 16 252 280 394 390 25 19 50 38 55 43 72 57
160 115 288 191 70 41 216 115 287 145 41 18 84 36 95 41 18 8 63 23 75 25 3
0 16 7 28 14 13 7 26 10 29 7 4 -3 11 -2 17 3 11 8 65 27 102 36 10 2 53 13
94 25 41 11 91 23 110 26 48 8 65 12 65 14 0 1 9 3 20 4 24 3 109 16 145 21
14 2 56 7 94 9 38 3 71 7 73 9 5 6 421 -1 468 -7z"/>
<path d="M5148 5445 c-3 -3 -34 -7 -70 -10 -76 -5 -179 -21 -227 -35 -19 -5
-38 -7 -42 -4 -5 3 -9 0 -9 -6 0 -6 -3 -9 -8 -7 -4 3 -39 -6 -77 -19 -39 -14
-74 -26 -80 -28 -18 -5 -150 -65 -165 -76 -8 -5 -33 -19 -55 -31 -36 -19 -122
-76 -135 -89 -3 -3 -25 -21 -50 -41 -80 -65 -174 -165 -259 -274 -29 -38 -114
-191 -136 -245 -15 -36 -34 -78 -42 -93 -8 -16 -12 -31 -9 -34 3 -3 -1 -17 -8
-32 -8 -14 -16 -40 -19 -56 -10 -53 -18 -90 -22 -105 -27 -94 -24 -400 5 -535
5 -22 11 -51 14 -65 10 -51 44 -157 60 -188 9 -17 16 -34 16 -37 -1 -21 125
-247 142 -253 4 -2 8 -8 8 -14 0 -5 6 -15 13 -22 6 -8 23 -28 37 -46 47 -62
241 -250 257 -250 3 0 22 -13 42 -28 41 -32 152 -97 224 -130 69 -32 177 -72
177 -65 0 3 6 1 13 -5 6 -6 41 -16 77 -23 36 -7 67 -16 70 -19 3 -3 16 -5 30
-6 14 0 54 -4 90 -9 71 -9 300 -13 300 -5 0 3 17 5 38 5 40 0 141 13 151 19 3
2 24 7 46 10 22 4 72 16 110 28 39 12 76 23 84 24 20 4 118 43 201 82 93 43
173 90 273 161 l77 55 0 550 0 551 -425 0 c-358 -1 -427 -3 -439 -15 -19 -21
-196 -309 -196 -319 0 -5 -4 -11 -8 -13 -11 -4 -81 -122 -76 -127 2 -3 154 -5
336 -5 l332 -1 1 -177 c0 -199 9 -176 -90 -228 -151 -79 -322 -122 -495 -123
-154 -1 -217 8 -330 47 -110 39 -221 99 -300 162 -38 31 -160 154 -152 154 4
0 2 4 -4 8 -23 15 -118 174 -139 232 -1 3 -4 12 -8 20 -10 25 -32 94 -33 105
-1 6 -3 12 -4 15 -20 53 -29 238 -17 345 16 136 100 350 175 444 73 93 252
258 252 234 0 -4 4 -3 8 3 16 24 193 108 250 119 13 2 32 7 42 10 81 26 267
36 375 21 28 -4 59 -9 70 -10 11 -2 31 -6 45 -10 14 -4 43 -12 65 -17 138 -38
315 -138 434 -245 71 -65 57 -67 123 17 15 19 76 97 137 174 l109 139 -21 19
c-47 41 -184 145 -232 174 -108 68 -355 173 -445 189 -14 3 -50 11 -80 19
-107 27 -351 48 -367 31 -3 -3 -11 -1 -18 4 -7 5 -14 8 -17 5z"/>
<path d="M6468 5432 c-32 -2 -58 -5 -58 -8 0 -6 71 -136 83 -151 5 -7 6 -13 1
-13 -5 0 -4 -4 1 -8 39 -28 200 -495 230 -667 32 -178 44 -273 50 -383 2 -35
6 -66 9 -69 2 -3 1 -15 -4 -28 -5 -13 -6 -26 -3 -29 6 -6 5 -170 -2 -256 -5
-60 -15 -159 -19 -190 -2 -14 -6 -43 -10 -65 -8 -61 -49 -248 -62 -288 -4 -12
-8 -29 -9 -37 -3 -24 -83 -256 -111 -317 -13 -31 -24 -62 -24 -69 0 -8 -4 -14
-10 -14 -5 0 -10 -9 -10 -20 0 -11 -4 -20 -10 -20 -5 0 -10 -6 -10 -13 0 -13
-29 -70 -94 -188 -20 -36 -36 -68 -36 -70 0 -3 489 -3 563 0 12 1 30 27 58 89
35 74 84 193 104 252 1 3 4 12 8 20 40 105 105 343 123 450 3 19 7 37 9 40 2
3 6 26 10 50 3 25 11 72 17 105 6 33 12 80 13 105 2 25 7 88 11 140 10 131 6
565 -6 565 -2 0 -6 29 -14 105 -3 36 -8 77 -11 90 -3 13 -7 42 -11 64 -3 22
-7 43 -9 46 -2 3 -6 22 -9 42 -3 21 -10 55 -15 75 -8 34 -44 172 -55 213 -11
41 -77 225 -109 304 -66 162 -51 146 -137 146 -41 1 -145 2 -230 3 -85 1 -181
1 -212 -1z"/>
<path d="M813 5303 c-58 -140 -125 -335 -118 -342 3 -2 438 -5 967 -6 842 -1
969 -3 1010 -17 149 -50 259 -211 252 -368 -1 -30 -3 -55 -4 -55 -1 0 -3 -7
-5 -15 -1 -8 -4 -21 -6 -28 -3 -8 18 -22 51 -36 98 -41 199 -94 287 -151 47
-31 86 -55 87 -53 51 94 76 225 72 378 -5 144 -7 156 -36 247 -86 270 -281
454 -570 542 l-85 25 -925 3 -925 4 -52 -128z"/>
<path d="M642 4760 c-4 -3 -8 -9 -8 -15 -1 -5 -9 -46 -18 -90 -15 -78 -36
-215 -41 -265 -1 -14 -6 -61 -10 -105 -14 -142 -8 -550 10 -644 1 -9 6 -41 10
-71 4 -30 9 -64 11 -75 2 -11 6 -37 9 -57 3 -20 9 -56 14 -80 6 -24 12 -54 15
-68 10 -53 66 -257 81 -300 9 -25 18 -52 20 -60 8 -34 69 -190 99 -255 18 -39
39 -87 47 -108 7 -20 20 -37 29 -38 46 -3 570 -3 570 0 0 2 -16 33 -37 70 -97
177 -213 440 -238 541 -11 44 -20 67 -28 78 -5 6 -7 12 -4 12 4 0 0 18 -8 39
-7 22 -11 41 -8 44 2 3 0 14 -6 25 -6 11 -13 38 -17 59 -3 21 -7 45 -9 53 -6
21 -17 86 -29 170 -6 39 -19 161 -22 205 -4 65 -4 337 0 380 3 22 7 72 10 110
4 39 15 120 26 180 24 136 25 137 43 208 8 31 14 57 14 58 -6 4 -520 3 -525
-1z"/>
<path d="M1400 4222 c0 -10 179 -464 185 -471 3 -2 237 -4 521 -4 495 0 519
-1 573 -21 31 -11 58 -24 59 -28 2 -4 9 -8 15 -8 18 0 119 -112 135 -150 49
-115 49 -218 0 -314 -50 -99 -124 -163 -222 -191 -50 -15 -111 -17 -420 -18
-199 0 -365 -2 -369 -4 -4 -3 -4 -10 0 -16 5 -7 15 -30 22 -52 8 -22 21 -56
29 -75 9 -19 16 -37 17 -40 0 -3 27 -71 60 -152 39 -100 64 -148 74 -149 9 0
140 -1 291 -1 259 0 350 8 435 37 6 1 21 6 33 10 28 9 168 79 196 97 57 39
144 122 197 188 44 55 102 150 91 150 -4 0 -2 4 4 8 14 9 60 142 69 202 4 25
9 54 11 65 10 44 3 194 -10 260 -22 105 -23 109 -49 174 -87 215 -267 383
-494 462 -29 10 -53 15 -53 12 0 -3 -6 -1 -12 5 -7 5 -31 13 -53 18 -57 10
-1335 17 -1335 6z"/>
<path d="M1041 2273 c12 -21 28 -45 36 -54 7 -8 13 -21 13 -27 0 -7 4 -12 8
-12 5 0 14 -11 20 -24 9 -21 57 -89 98 -139 8 -9 14 -20 14 -24 0 -3 7 -13 15
-22 8 -9 54 -63 102 -121 194 -235 457 -470 723 -646 165 -110 427 -248 585
-309 39 -14 79 -30 90 -35 69 -31 400 -127 495 -144 15 -3 84 -14 130 -22 14
-2 36 -6 50 -9 14 -3 48 -8 75 -11 28 -3 60 -7 71 -9 100 -21 572 -21 717 0
20 3 54 7 75 10 43 6 217 34 247 39 11 2 67 16 125 31 58 15 110 28 115 29 54
12 268 85 340 116 11 5 49 21 85 36 239 103 597 318 761 459 19 16 57 48 85
70 93 75 340 330 436 450 90 114 233 318 264 377 l14 28 -2906 0 -2906 0 23
-37z m4985 -186 c6 -6 -112 -126 -206 -210 -71 -64 -266 -212 -317 -242 -18
-11 -33 -23 -33 -27 0 -4 -5 -8 -10 -8 -6 0 -29 -11 -51 -26 -111 -70 -294
-160 -434 -214 -60 -23 -119 -46 -130 -50 -11 -5 -47 -16 -80 -25 -33 -9 -71
-21 -85 -26 -14 -5 -36 -11 -50 -13 -14 -3 -43 -10 -65 -15 -38 -9 -59 -13
-137 -26 -18 -3 -40 -8 -48 -10 -8 -2 -40 -7 -70 -11 -30 -4 -66 -8 -80 -10
-14 -2 -86 -6 -160 -10 -74 -3 -138 -8 -142 -10 -5 -3 -12 -3 -17 0 -5 4 -67
8 -138 11 -70 3 -137 7 -148 9 -11 2 -47 7 -80 10 -66 7 -159 24 -230 42 -5 1
-21 4 -35 7 -59 12 -161 40 -245 69 -49 16 -94 31 -100 33 -5 1 -21 7 -35 12
-14 6 -45 19 -70 29 -25 10 -55 24 -67 32 -12 7 -23 12 -25 11 -11 -11 -388
201 -396 222 -2 5 -8 9 -14 9 -10 0 -177 123 -232 170 -120 104 -276 256 -276
268 0 8 4199 6 4206 -1z"/>
</g>
</svg>
