<?xml version="1.0" encoding="utf-8"?>
<!-- Generator: Adobe Illustrator 21.1.0, SVG Export Plug-In . SVG Version: 6.00 Build 0)  -->
<svg version="1.1" id="Layer_1" xmlns="http://www.w3.org/2000/svg" xmlns:xlink="http://www.w3.org/1999/xlink" x="0px" y="0px"
	 viewBox="0 0 489 33.1" style="enable-background:new 0 0 489 33.1;" xml:space="preserve">
<style type="text/css">
	.st0{fill:#777778;}
	.st1{fill:#68C4BE;}
</style>
<g>
	<path class="st0" d="M34.1,33.1l-3.9-8.8H11.9L8,33.1H4.5L19.4,0h3.4l14.9,33.1H34.1z M13.2,21.3h15.8L21,3.5L13.2,21.3z"/>
	<path class="st0" d="M60.2,33.1l-7.1-10.8c-1,0.1-1.8,0.1-2.3,0.1h-9.1v10.7h-3.3V0h12.3c4.1,0,7.3,1,9.6,2.9
		c2.3,1.9,3.4,4.6,3.4,8.1c0,2.7-0.7,5-2,6.9c-1.3,1.8-3.2,3.1-5.7,3.8L64,33.1H60.2z M50.7,19.4c3.2,0,5.6-0.7,7.3-2.2
		c1.7-1.4,2.6-3.5,2.6-6.2c0-2.6-0.9-4.7-2.6-6.1c-1.7-1.4-4.1-2.1-7.3-2.1h-9.1v16.5H50.7z"/>
	<path class="st0" d="M89.7,33.1l-7.1-10.8c-1,0.1-1.8,0.1-2.3,0.1h-9.1v10.7h-3.3V0h12.3c4.1,0,7.3,1,9.6,2.9
		c2.3,1.9,3.4,4.6,3.4,8.1c0,2.7-0.7,5-2,6.9c-1.3,1.8-3.2,3.1-5.7,3.8l7.9,11.4H89.7z M80.2,19.4c3.2,0,5.6-0.7,7.3-2.2
		c1.7-1.4,2.6-3.5,2.6-6.2c0-2.6-0.9-4.7-2.6-6.1c-1.7-1.4-4.1-2.1-7.3-2.1h-9.1v16.5H80.2z"/>
	<path class="st0" d="M120,1.7c2.6,1.5,4.7,3.5,6.3,6.1c1.5,2.6,2.3,5.4,2.3,8.4c0,3.1-0.8,5.9-2.3,8.5c-1.5,2.6-3.6,4.6-6.3,6.1
		c-2.6,1.5-5.5,2.3-8.7,2.3c-3.2,0-6-0.8-8.7-2.3c-2.6-1.5-4.7-3.6-6.3-6.1c-1.5-2.6-2.3-5.4-2.3-8.5c0-3.1,0.8-5.9,2.3-8.4
		c1.5-2.6,3.6-4.6,6.3-6.1c2.6-1.5,5.5-2.2,8.7-2.2C114.5-0.6,117.4,0.2,120,1.7z M104.4,4.2c-2.1,1.2-3.8,2.9-5.1,5
		c-1.3,2.1-1.9,4.4-1.9,7c0,2.5,0.6,4.9,1.9,7c1.3,2.1,3,3.8,5.1,5.1c2.1,1.2,4.5,1.9,7,1.9c2.5,0,4.8-0.6,6.9-1.9
		c2.1-1.2,3.8-2.9,5.1-5.1c1.3-2.1,1.9-4.5,1.9-7c0-2.5-0.6-4.8-1.9-7c-1.3-2.1-3-3.8-5.1-5c-2.1-1.2-4.4-1.8-6.9-1.8
		C108.9,2.4,106.6,3,104.4,4.2z"/>
	<path class="st0" d="M170.2,0h3.5l-11.2,33.1H159l-9.3-29l-9.4,29h-3.4L125.8,0h3.5l9.4,29.6L148.1,0h3.3l9.4,29.6L170.2,0z"/>
	<path class="st0" d="M211.2,1.7c2.6,1.5,4.7,3.5,6.3,6.1c1.5,2.6,2.3,5.4,2.3,8.4c0,3.1-0.8,5.9-2.3,8.5c-1.5,2.6-3.6,4.6-6.3,6.1
		c-2.6,1.5-5.5,2.3-8.7,2.3c-3.2,0-6-0.8-8.7-2.3c-2.6-1.5-4.7-3.6-6.3-6.1c-1.5-2.6-2.3-5.4-2.3-8.5c0-3.1,0.8-5.9,2.3-8.4
		c1.5-2.6,3.6-4.6,6.3-6.1c2.6-1.5,5.5-2.2,8.7-2.2C205.7-0.6,208.6,0.2,211.2,1.7z M195.6,4.2c-2.1,1.2-3.8,2.9-5.1,5
		c-1.3,2.1-1.9,4.4-1.9,7c0,2.5,0.6,4.9,1.9,7c1.3,2.1,3,3.8,5.1,5.1c2.1,1.2,4.5,1.9,7,1.9c2.5,0,4.8-0.6,6.9-1.9
		c2.1-1.2,3.8-2.9,5.1-5.1c1.3-2.1,1.9-4.5,1.9-7c0-2.5-0.6-4.8-1.9-7c-1.3-2.1-3-3.8-5.1-5c-2.1-1.2-4.4-1.8-6.9-1.8
		C200.1,2.4,197.7,3,195.6,4.2z"/>
	<path class="st0" d="M222.2,0H243v2.9h-17.4v12.7h15.6v2.9h-15.6v14.5h-3.3V0z"/>
	<g>
		<path class="st1" d="M296.8,0h6.3v33.1h-6.3V0z"/>
	</g>
	<g>
		<g>
			<polygon class="st1" points="277.3,29.3 289,0 282.5,0 274.4,21.4 			"/>
		</g>
		<g>
			<polygon class="st1" points="272.7,25.9 272.7,26 262.9,0 256.1,0 269.2,33.1 275.4,33.1 			"/>
		</g>
	</g>
	<g>
		<path class="st1" d="M347.6,0h27v5.6h-10.3v27.5h-6.4V5.6h-10.3V0z"/>
	</g>
	<g>
		<g>
			<path class="st1" d="M394.2,27.3c-1.4-0.2-2.7-0.7-3.9-1.4c-1.7-1-3.1-2.4-4.1-4.1c-1-1.7-1.5-3.6-1.5-5.7s0.5-4,1.5-5.7
				c1-1.7,2.4-3.1,4.1-4.1c1.2-0.7,2.6-1.2,3.9-1.4v-5.7c-2.7,0.2-5.1,0.9-7.4,2.2c-2.7,1.5-4.8,3.5-6.4,6.1
				c-1.5,2.6-2.3,5.5-2.3,8.6c0,3.2,0.8,6,2.3,8.6c1.5,2.6,3.7,4.7,6.4,6.2c2.3,1.3,4.7,2,7.4,2.2V27.3z"/>
		</g>
		<g>
			<path class="st1" d="M411.1,7.4c-1.5-2.6-3.7-4.6-6.4-6.1c-2.3-1.2-4.7-2-7.4-2.2v5.7c1.4,0.2,2.8,0.7,4,1.4c1.7,1,3,2.3,4,4.1
				c1,1.7,1.5,3.6,1.5,5.7s-0.5,4-1.5,5.7c-1,1.7-2.3,3.1-4,4.1c-1.3,0.8-2.6,1.2-4,1.4v5.8c2.7-0.2,5.1-0.9,7.4-2.2
				c2.7-1.5,4.8-3.6,6.4-6.2c1.5-2.6,2.3-5.5,2.3-8.6C413.4,12.9,412.6,10,411.1,7.4z"/>
		</g>
	</g>
	<g>
		<g>
			<polygon class="st1" points="464.9,4.6 462.2,0 455.8,0 468.1,22.5 468.1,33.1 474.4,33.1 474.4,22.2 474.8,21.6 			"/>
		</g>
		<g>
			<polygon class="st1" points="476.5,18.4 486.5,0 480.1,0 473,12.3 			"/>
		</g>
	</g>
	<g>
		<g>
			<path class="st1" d="M327.4,26.9c-1.1-0.2-2.2-0.6-3.2-1.2c-1.7-1-3-2.3-4-4.1c-1-1.7-1.5-3.6-1.5-5.7c0-2,0.5-3.9,1.5-5.7
				c1-1.7,2.3-3.1,4-4c1-0.6,2.1-1,3.2-1.2v-5.8c-2.3,0.3-4.5,1-6.5,2.1c-2.7,1.5-4.8,3.5-6.3,6.1c-1.5,2.6-2.3,5.5-2.3,8.6
				c0,3.2,0.8,6,2.3,8.6c1.5,2.6,3.6,4.7,6.2,6.2c2.1,1.2,4.3,1.9,6.6,2.1V26.9z"/>
		</g>
		<g>
			<path class="st1" d="M330.5,4.8c1.4,0.1,2.8,0.5,4.1,1.1c1.6,0.8,3,1.8,4.1,3.2l3.7-4.6c-1.6-1.7-3.5-3-5.8-3.9
				c-2-0.8-4-1.3-6.1-1.4V4.8z"/>
		</g>
		<g>
			<path class="st1" d="M338.8,23.2c-1.2,1.2-2.6,2.2-4.2,2.9c-1.3,0.6-2.7,0.9-4,1v5.9c2-0.1,4-0.6,5.9-1.5c2.3-1,4.3-2.4,6.1-4.2
				L338.8,23.2z"/>
		</g>
	</g>
	<g>
		<g>
			<path class="st1" d="M443.2,22.1c2.1-0.9,3.8-2.3,4.9-4.1c1.1-1.8,1.7-4,1.7-6.6c0-3.6-1.2-6.4-3.5-8.4c-2.3-2-5.6-3-9.9-3H432
				v5.5h4.4c2.4,0,4.2,0.5,5.5,1.5c1.3,1,1.9,2.5,1.9,4.5c0,2-0.6,3.6-1.9,4.6c-1.3,1-3.1,1.6-5.5,1.6H432v5.6h4.4
				c0.5,0,0.9,0,1.2,0l5.7,9.8h7.2L443.2,22.1z"/>
		</g>
		<g>
			<rect x="422.5" y="0" class="st1" width="6.3" height="33.1"/>
		</g>
	</g>
</g>
</svg>
