<?xml version="1.0" encoding="utf-8"?>
<!-- Generator: Adobe Illustrator 21.1.0, SVG Export Plug-In . SVG Version: 6.00 Build 0)  -->
<svg version="1.1" id="Layer_1" xmlns="http://www.w3.org/2000/svg" xmlns:xlink="http://www.w3.org/1999/xlink" x="0px" y="0px"
	 viewBox="0 0 500 116" style="enable-background:new 0 0 500 116;" xml:space="preserve">
<style type="text/css">
	.st0{fill:#9500FF;}
	.st1{fill:#FFFFFF;}
</style>
<g>
	<g>
		<rect x="193.8" y="8.4" class="st0" width="12.6" height="57"/>
	</g>
	<g>
		<polygon class="st0" points="160.1,56.7 141.3,8.4 132.9,8.4 155.8,65.4 164,65.4 187.1,8.4 178.9,8.4 		"/>
	</g>
	<g>
		<path class="st0" d="M115.2,11.7c-4.6-2.6-9.6-3.8-15.1-3.8s-10.6,1.3-15.2,3.8c-4.6,2.6-8.2,6-10.8,10.5c-2.7,4.4-4,9.3-4,14.6
			c0,5.3,1.3,10.2,4,14.7s6.3,8,10.9,10.6s9.6,3.9,15.1,3.9s10.5-1.3,15.1-3.9s8.2-6.1,10.9-10.6s4-9.4,4-14.7
			c0-5.3-1.3-10.2-4-14.6C123.5,17.8,119.8,14.3,115.2,11.7z M119.1,47.9c-2,3.4-4.6,6-8,8c-3.3,2-7,3-11,3s-7.6-1-11-3
			s-6.1-4.7-8.1-8c-2-3.4-3-7.1-3-11.1s1-7.7,3-11s4.7-6,8.1-7.9c3.4-2,7.1-2.9,11-2.9c4,0,7.6,1,11,2.9c3.3,2,6,4.6,8,7.9s3,7,3,11
			C122.1,40.9,121.1,44.5,119.1,47.9z"/>
	</g>
	<g>
		<polygon class="st0" points="65.9,8.4 56.6,8.4 27.4,40.4 27.4,8.4 19.6,8.4 19.6,65.4 27.4,65.4 27.4,50.5 37.9,39.1 57.9,65.4 
			67.4,65.4 43.4,33 		"/>
	</g>
	<g>
		<polygon class="st0" points="450.1,19.3 463,19.3 463,19.3 480.4,19.3 480.4,8.4 432.8,8.4 432.8,19.3 		"/>
	</g>
	<g>
		<rect x="212.8" y="31.5" class="st0" width="21.3" height="10.7"/>
	</g>
	<g>
		<rect x="212.8" y="8.4" class="st0" width="24.4" height="10.7"/>
	</g>
	<g>
		<polygon class="st0" points="374.2,8.4 374.2,65.4 386.5,65.4 386.5,9.1 385.9,8.4 		"/>
	</g>
	<g>
		<rect x="212.8" y="54.8" class="st0" width="25.3" height="10.7"/>
	</g>
	<g>
		<rect x="450.1" y="25.8" class="st0" width="12.9" height="39.6"/>
	</g>
	<g>
		<polygon class="st0" points="413.6,45.2 392.9,17.7 392.9,37.3 414.1,65.4 425.9,65.4 425.9,8.4 413.6,8.4 		"/>
	</g>
	<g>
		<polygon class="st0" points="248.2,8.4 248.2,65.4 260.3,65.4 260.3,8.9 259.9,8.4 		"/>
	</g>
	<g>
		<polygon class="st0" points="330.6,8.4 305.9,65.4 319.2,65.4 323.6,54.3 343.2,54.3 339,44 327.9,44 336.9,21.8 344,39.3 
			344.1,39.3 354.6,65.4 368.3,65.4 343.9,8.4 		"/>
	</g>
	<g>
		<polygon class="st0" points="287.6,45.2 266.8,17.5 266.8,37.1 288.1,65.4 299.8,65.4 299.8,8.4 287.6,8.4 		"/>
	</g>
</g>
<g>
	<path class="st1" d="M49,78.7c-2.2-0.9-4.5-1.4-6.8-1.4c-3.2,0-6.2,0.8-8.9,2.3c-2.7,1.6-4.8,3.7-6.4,6.4s-2.4,5.7-2.4,8.9
		s0.8,6.1,2.4,8.8c1.6,2.7,3.7,4.8,6.4,6.4s5.7,2.4,8.9,2.4c2.3,0,4.6-0.4,6.8-1.3s4.2-2.1,5.9-3.8l2.5,2.7
		c-2.1,1.9-4.5,3.4-7.1,4.6c-2.7,1.1-5.4,1.7-8.2,1.7c-4,0-7.6-1-10.9-2.9s-6-4.5-7.9-7.8s-2.9-6.9-2.9-10.7s1-7.4,2.9-10.7
		c2-3.2,4.6-5.8,8-7.7c3.3-1.9,7-2.8,11-2.8c2.8,0,5.6,0.5,8.2,1.6c2.6,1.1,5,2.5,7,4.4L55,82.7C53.1,80.9,51.2,79.6,49,78.7z"/>
	<path class="st1" d="M88.6,74h4.1v38.2h18.5v3.7H88.6V74z"/>
	<path class="st1" d="M170.5,76.5c3.3,1.9,6,4.5,8,7.7s2.9,6.8,2.9,10.7s-1,7.5-2.9,10.7c-2,3.3-4.6,5.9-8,7.8
		c-3.3,1.9-7,2.9-11,2.9s-7.7-1-11-2.9s-6-4.5-8-7.8s-2.9-6.9-2.9-10.7s1-7.4,2.9-10.7c2-3.2,4.6-5.8,8-7.7c3.3-1.9,7-2.8,11-2.8
		C163.5,73.6,167.2,74.6,170.5,76.5z M150.7,79.7c-2.7,1.6-4.9,3.7-6.5,6.4c-1.6,2.7-2.4,5.6-2.4,8.8s0.8,6.2,2.4,8.9
		c1.6,2.7,3.8,4.9,6.5,6.4c2.7,1.6,5.7,2.4,8.9,2.4s6.1-0.8,8.8-2.4s4.9-3.7,6.5-6.4c1.6-2.7,2.4-5.7,2.4-8.9s-0.8-6.1-2.4-8.8
		c-1.6-2.7-3.8-4.8-6.5-6.4s-5.6-2.3-8.8-2.3C156.3,77.4,153.4,78.1,150.7,79.7z"/>
	<path class="st1" d="M206.4,73.9h31.9v3.8h-13.9v38.2h-4.1V77.7h-13.9V73.9z"/>
	<path class="st1" d="M267.8,74h4.1v19.2h26.2V74h4.1v41.9h-4.1v-19h-26.2v19h-4.1V74z"/>
	<path class="st1" d="M337.7,74h4.1v41.9h-4.1V74z"/>
	<path class="st1" d="M407.8,74h4.1v41.9h-4.4l-26-35.5v35.5h-4.1V74h4.4l26,35.5V74z"/>
	<path class="st1" d="M476.8,95.4h3.7v15.4c-2,1.7-4.4,3.1-7.1,4c-2.7,1-5.5,1.5-8.3,1.5c-4,0-7.6-1-11-2.9c-3.3-1.9-6-4.5-8-7.8
		s-2.9-6.9-2.9-10.7s1-7.4,2.9-10.7c2-3.2,4.6-5.8,8-7.7c3.4-1.9,7.1-2.8,11.1-2.8c2.8,0,5.6,0.5,8.3,1.5c2.7,1,5,2.4,7,4.2
		l-2.4,2.9c-1.7-1.6-3.7-2.8-5.9-3.7c-2.2-0.9-4.6-1.3-7-1.3c-3.2,0-6.2,0.8-8.9,2.4c-2.7,1.6-4.9,3.7-6.5,6.4
		c-1.6,2.7-2.4,5.6-2.4,8.8c0,3.2,0.8,6.2,2.4,8.9c1.6,2.7,3.8,4.8,6.5,6.4s5.7,2.4,9,2.4c2,0,4-0.3,6-1s3.8-1.6,5.5-2.8L476.8,95.4
		L476.8,95.4z"/>
</g>
</svg>
