<?xml version="1.0" standalone="no"?>
<!DOCTYPE svg PUBLIC "-//W3C//DTD SVG 20010904//EN"
 "http://www.w3.org/TR/2001/REC-SVG-20010904/DTD/svg10.dtd">
<svg version="1.0" xmlns="http://www.w3.org/2000/svg"
 width="300.000000pt" height="300.000000pt" viewBox="0 0 300.000000 300.000000"
 preserveAspectRatio="xMidYMid meet">
<metadata>
Created by potrace 1.11, written by Peter Selinger 2001-2013
</metadata>
<g transform="translate(0.000000,300.000000) scale(0.100000,-0.100000)"
fill="#000000" stroke="none">
<path d="M1367 2669 l-118 -119 76 0 75 0 0 -130 c0 -96 -3 -132 -12 -134
-161 -49 -231 -82 -311 -150 l-38 -32 20 -50 c10 -27 31 -75 45 -107 l26 -57
47 37 c53 40 154 90 193 95 l25 3 3 -572 2 -573 -75 -76 -75 -76 0 -231 0
-232 123 123 122 122 123 -122 122 -123 0 231 0 231 -75 78 -75 77 0 574 0
574 28 -6 c52 -13 155 -64 199 -100 l43 -35 19 43 c10 24 30 69 45 102 14 32
26 62 26 67 0 16 -123 101 -188 131 -35 16 -88 34 -118 40 l-54 11 0 133 0
134 76 0 76 0 -120 120 c-67 66 -125 120 -129 119 -4 0 -61 -54 -126 -120z"/>
<path d="M847 2063 c-4 -3 0 -20 7 -37 23 -52 175 -400 339 -773 85 -194 156
-350 159 -348 2 3 3 89 1 192 l-4 188 -121 275 c-66 151 -131 298 -143 325
-13 28 -33 75 -46 105 -12 30 -26 60 -31 66 -8 11 -151 18 -161 7z"/>
<path d="M1981 2051 c-5 -9 -46 -99 -91 -201 -45 -102 -95 -213 -111 -248 -16
-35 -29 -65 -29 -67 0 -4 -13 -34 -79 -177 -30 -66 -30 -69 -34 -258 -2 -105
-1 -193 1 -195 3 -3 83 174 179 393 96 218 207 472 247 563 102 230 101 206 6
206 -65 1 -82 -2 -89 -16z"/>
<path d="M818 1807 c-59 -103 -108 -203 -191 -387 -222 -497 -330 -635 -517
-663 -20 -3 -25 -10 -25 -33 0 -25 4 -29 25 -28 209 10 372 115 516 331 31 48
120 212 197 365 l140 278 -48 110 c-27 61 -49 110 -49 110 -1 0 -22 -37 -48
-83z"/>
<path d="M2113 1864 c-6 -10 -27 -58 -48 -106 l-37 -87 137 -273 c136 -272
229 -427 302 -503 116 -122 235 -182 396 -199 l47 -5 0 35 c0 24 -4 34 -12 31
-19 -6 -98 17 -134 39 -126 77 -220 222 -388 597 -87 194 -208 436 -235 468
-18 22 -19 22 -28 3z"/>
</g>
</svg>
