<svg xmlns="http://www.w3.org/2000/svg" viewBox="0 0 600 600"><defs><style>.a{fill:#dddddd;}</style></defs><title>echelon</title><path class="a" d="M562.64,287.64,312.36,37.36,300,25,287.64,37.36,37.36,287.64,25,300l12.36,12.36L287.64,562.64,300,575l12.36-12.36L562.64,312.36,575,300ZM300,550.28,49.71,300,300,49.72,550.28,300Z"/><polygon class="a" points="136.37 300 83.62 300 264.58 480.97 264.58 480.97 264.58 480.97 264.58 376.11 238.53 402.17 136.37 300"/><polygon class="a" points="335.36 428.27 335.36 481.02 516.38 300 515.84 300 463.63 300 410.98 300 437.31 326.33 335.36 428.27"/><polygon class="a" points="282.06 101.55 282.06 101.56 248.08 135.53 282.06 135.53 282.06 498.45 300 516.39 317.89 498.5 317.89 135.53 352.94 135.53 300.51 83.11 300 83.62 300 83.61 282.06 101.55"/></svg>