<?xml version="1.0" encoding="utf-8"?>
<!-- Generator: Adobe Illustrator 21.1.0, SVG Export Plug-In . SVG Version: 6.00 Build 0)  -->
<svg version="1.1" id="Layer_1" xmlns="http://www.w3.org/2000/svg" xmlns:xlink="http://www.w3.org/1999/xlink" x="0px" y="0px"
	 viewBox="0 0 548 122" style="enable-background:new 0 0 548 122;" xml:space="preserve">
<style type="text/css">
	.st0{fill:#2CA01C;}
	.st1{fill:#FFFFFF;}
	.st2{fill:none;}
</style>
<g id="QuickBooks_-_Clearspace__x26__Lockup">
	<g id="QuickBooks_Lockup">
		<g id="Wordmark">
			<path id="_xAE__1_" d="M538,85.3c0-1.1-0.9-1.5-1.9-1.5h-1.8v5h0.9v-2.1h0.6l1.2,2.1h1.1l-1.3-2.2C537.5,86.5,538,86,538,85.3z
				 M535.2,86v-1.4h0.8c0.5,0,1,0.1,1,0.7c0,0.6-0.6,0.7-1.1,0.7H535.2z M536.1,81.9c-2.5,0-4.4,2-4.4,4.4s2,4.4,4.4,4.4
				s4.4-1.9,4.4-4.4S538.5,81.9,536.1,81.9z M536.1,90.1c-2.1,0-3.7-1.7-3.7-3.7c0-2.1,1.7-3.7,3.7-3.7c2.1,0,3.7,1.7,3.7,3.7
				C539.8,88.4,538.1,90.1,536.1,90.1z"/>
			<path id="quickbooks" d="M250,82.7c-6.5,0-9.8-5.8-9.8-11.4c0-5.6,3.6-11.2,9.5-11.2c2.8,0,6.3,1.4,7.6,3.3l6.9-6.9
				c-3.3-3.5-8.6-5.6-14.5-5.6c-12,0-20.7,8.6-20.7,20.4c0,12,8.6,20.4,20.9,20.4c5.9,0,11.3-1.7,14.5-5.2l-6.7-7.2
				C256.2,81.3,253,82.7,250,82.7z M211.5,90.7h10.7V52h-10.7V90.7z M192.1,73.2c0,4.5-3,9.4-8.5,9.4c-4.3,0-6.5-3-6.5-9.3V52h-10.7
				v24c0,8,4,15.8,14.6,15.8c5,0,9.2-4,11.4-6.9h0.2v5.8h10.2V52h-10.7V73.2z M147.1,56.9h-0.2c-1.5-1.7-5.6-6-12.2-6
				c-10.9,0-19.3,8.5-19.3,20.3c0,11.9,7.7,20.6,18.8,20.6c5,0,9.7-2.7,12.4-5.7h0.2v23.7h10.7V52h-10.3V56.9z M136.8,82.7
				c-6.6,0-10.4-5.8-10.4-11.5c0-5.4,3.4-11.3,10.4-11.3c6.4,0,10.3,5.9,10.3,11.5C147.1,76.9,143.2,82.7,136.8,82.7z M380.1,50.9
				c-12.2,0-21,8.5-21,20.3c0,12.2,9,20.7,21,20.7c12,0,21-8.6,21-20.7C401.1,59.5,392.3,50.9,380.1,50.9z M380.1,82.7
				c-7,0-10.1-5.9-10.1-11.5c0-5.4,3.2-11.3,10.1-11.3c7,0,10.1,5.9,10.1,11.3C390.2,76.7,387.1,82.7,380.1,82.7z M513.7,66.9
				c-5.5-1.3-7.4-2-7.4-4.2c0-3.1,3.9-3.7,5.7-3.7c3.3,0,7.1,2,8.5,3.9l6.3-6c-2.9-3.7-8.6-5.8-14.7-5.8c-7.7,0-15.8,3.9-15.8,12.6
				c0,7.5,5.8,9.7,11.6,11.1c6,1.4,8.2,2.4,8.2,4.9c0,3.6-4.1,4.2-5.5,4.2c-3.5,0-7.5-2-9.7-4.6l-6.5,6.6c3.5,3.9,9.6,6.3,15.8,6.3
				c10.4,0,16.6-5,16.6-13.2C526.6,70.8,519.1,68.2,513.7,66.9z M493.5,52h-13.8l-13.8,16.1h-0.2V30.7H455v60h10.7V71.6h0.2
				l14.3,19.1h14.1l-16.6-21.1L493.5,52z M335,50.9c-4.9,0-8.5,2.1-11.9,5.3H323V30.7h-10.7v60h10.2v-5.5h0.2
				c2.4,4,7.2,6.6,12.2,6.6c11,0,19.4-8.7,19.4-20.6C354.2,59.5,345.9,50.9,335,50.9z M332.9,82.7c-6.4,0-10.3-5.7-10.3-11.3
				c0-5.5,3.9-11.5,10.3-11.5c6.9,0,10.4,5.9,10.4,11.3C343.3,76.9,339.6,82.7,332.9,82.7z M308.3,52h-13.8l-13.8,16.1h-0.2V30.7
				h-10.7v60h10.7V71.6h0.2L295,90.7h14.1l-16.6-21.1L308.3,52z M427,50.9c-12.2,0-21,8.5-21,20.3c0,12.2,9,20.7,21,20.7
				c12,0,21-8.6,21-20.7C448,59.5,439.2,50.9,427,50.9z M427,82.7c-7,0-10.1-5.9-10.1-11.5c0-5.4,3.2-11.3,10.1-11.3
				c7,0,10.1,5.9,10.1,11.3C437.2,76.7,434,82.7,427,82.7z"/>
		</g>
		<g id="Icon_2_">
			<circle id="Circle_2_" class="st0" cx="58.4" cy="53.2" r="45"/>
			<path id="qb" class="st1" d="M25.9,53.2c0,9.7,7.8,17.5,17.5,17.5h2.5v-6.5h-2.5c-6.1,0-11-4.9-11-11c0-6.1,4.9-11,11-11h6
				c0,0,0,33.4,0,34c0,3.6,2.9,6.5,6.5,6.5v-47c0,0-6.7,0-12.5,0C33.7,35.7,25.9,43.6,25.9,53.2z M73.4,35.7h-2.5v6.5h2.5
				c6.1,0,11,4.9,11,11s-4.9,11-11,11h-6c0,0,0-33.4,0-34c0-3.6-2.9-6.5-6.5-6.5v47c0,0,6.7,0,12.5,0c9.7,0,17.5-7.8,17.5-17.5
				C90.9,43.6,83,35.7,73.4,35.7z"/>
		</g>
		<path id="intuit_2_" d="M159.4,18.5c1.6,0,3-1.3,3-3c0-1.6-1.3-3-3-3c-1.6,0-3,1.3-3,3C156.5,17.1,157.8,18.5,159.4,18.5z
			 M141.7,20.5c-2.9,0-5.2,1.8-6.1,3.7h-0.1v-3.2h-4.7v19.7h4.9V29.9c0-2.6,1.5-5.3,4.6-5.3c3.2,0,3.7,2.9,3.7,5.2v10.9h4.9V28.4
			C149,24.4,146.8,20.5,141.7,20.5z M120.9,40.7h4.9V21.1h-4.9V40.7z M210.4,18.5c1.6,0,3-1.3,3-3c0-1.6-1.3-3-3-3c-1.6,0-3,1.3-3,3
			C207.4,17.1,208.7,18.5,210.4,18.5z M202.4,21v4.4h5.5v15.3h4.9V25.4h5.5V21H202.4z M194,40.7h4.9V21.1H194V40.7z M151.5,25.4h5.5
			v15.3h4.9V25.4h5.5V21h-16V25.4z M184,31.9c0,2.6-1.5,5.3-4.6,5.3c-3.2,0-3.7-2.9-3.7-5.2V21.1h-4.9v12.3c0,4,2.1,8,7.3,8
			c2.9,0,5.2-1.8,6.1-3.7h0.1v3.2h4.7V21.1H184V31.9z"/>
	</g>
	<rect id="Clearspace_1_" x="-31.6" y="-36.8" class="st2" width="603.3" height="191.5"/>
</g>
</svg>
