<?xml version="1.0" encoding="utf-8"?>
<!-- Generator: Adobe Illustrator 21.1.0, SVG Export Plug-In . SVG Version: 6.00 Build 0)  -->
<svg version="1.1" id="Layer_1" xmlns="http://www.w3.org/2000/svg" xmlns:xlink="http://www.w3.org/1999/xlink" x="0px" y="0px"
	 viewBox="0 0 60 60" style="enable-background:new 0 0 60 60;" xml:space="preserve">
<style type="text/css">
	.st0{fill:#2CA01C;}
	.st1{fill:#FFFFFF;}
	.st2{fill:none;}
</style>
<path id="qb_1_" class="st1" d="M2.5,30c0,8.2,6.6,14.8,14.8,14.8h2.1v-5.5h-2.1C12.1,39.3,8,35.1,8,30c0-5.1,4.2-9.3,9.3-9.3h5.1
	c0,0,0,28.3,0,28.8c0,3,2.5,5.5,5.5,5.5V15.2c0,0-5.7,0-10.6,0C9.1,15.2,2.5,21.8,2.5,30z M42.7,15.2h-2.1v5.5h2.1
	c5.1,0,9.3,4.2,9.3,9.3s-4.2,9.3-9.3,9.3h-5.1c0,0,0-28.3,0-28.8c0-3-2.5-5.5-5.5-5.5v39.8c0,0,5.7,0,10.6,0
	c8.2,0,14.8-6.6,14.8-14.8C57.5,21.8,50.9,15.2,42.7,15.2z"/>
</svg>
