<?xml version="1.0" encoding="utf-8"?>
<!-- Generator: Adobe Illustrator 21.1.0, SVG Export Plug-In . SVG Version: 6.00 Build 0)  -->
<svg version="1.1" id="Layer_1" xmlns="http://www.w3.org/2000/svg" xmlns:xlink="http://www.w3.org/1999/xlink" x="0px" y="0px"
	 viewBox="0 0 521.4 78.9" style="enable-background:new 0 0 521.4 78.9;" xml:space="preserve">
<style type="text/css">
	.st0{fill:#F9B318;}
	.st1{fill:#6FCBD5;}
	.st2{fill:#F99B22;}
	.st3{fill:#31C0CC;}
	.st4{fill:#787878;}
</style>
<g>
	<path class="st4" d="M52.4,78.3L34,51.9c-1.9,0.3-4,0.4-6.6,0.4H4.7v25.9H0V0.6h27.5c9.6,0,17.1,2.2,22.3,6.7s7.8,10.7,7.8,18.9
		c0,6.6-1.6,12-4.9,16.3c-3.3,4.3-8,7.2-14.2,8.7l19.5,27.1H52.4z M27.6,47.8c8.1,0,14.4-1.9,18.8-5.6c4.4-3.7,6.6-9,6.6-16
		c0-6.8-2.2-12-6.6-15.7C42,7,35.7,5.1,27.6,5.1H4.7v42.7H27.6z"/>
	<path class="st4" d="M85.8,0.6h50.1v4.6H90.5v31h40.5v4.7H90.5v32.9h46.9v4.6H85.8V0.6z"/>
	<path class="st4" d="M150.8,0.6h5.2l29.5,72.1l29.6-72.1h5.1L188,78.3h-4.9L150.8,0.6z"/>
	<g>
		<polygon class="st4" points="251.1,0.5 236.2,0.5 236.2,78.3 284.7,78.3 284.7,64.8 251.1,64.8 		"/>
		<rect x="487.8" y="32.7" class="st4" width="27.9" height="13"/>
		<rect x="487.8" y="0.5" class="st4" width="32.2" height="13"/>
		<path class="st4" d="M324.5,64.9c-2-0.6-3.9-1.4-5.8-2.5c-4-2.4-7.3-5.6-9.7-9.7c-2.4-4.1-3.6-8.6-3.6-13.4
			c0-4.9,1.2-9.4,3.6-13.4c2.4-4,5.6-7.2,9.7-9.6c1.9-1.1,3.8-1.9,5.9-2.5V0c-5,0.8-9.6,2.3-13.9,4.7c-6.3,3.5-11.3,8.3-14.9,14.3
			c-3.6,6.1-5.4,12.8-5.4,20.2c0,7.4,1.8,14.2,5.4,20.3c3.6,6.1,8.6,10.9,14.9,14.5c4.3,2.4,9,4,13.9,4.8V64.9z"/>
		<rect x="487.8" y="65.3" class="st4" width="33.6" height="13"/>
		<path class="st4" d="M352.7,4.7c-4.4-2.4-9.1-3.9-14.1-4.7v13.7c2.2,0.6,4.2,1.5,6.2,2.6c4,2.3,7.2,5.5,9.5,9.6
			c2.3,4,3.5,8.5,3.5,13.4c0,4.9-1.2,9.4-3.5,13.4c-2.3,4.1-5.5,7.3-9.5,9.7c-2,1.2-4.1,2.1-6.2,2.7v13.8c5-0.8,9.7-2.3,14.1-4.8
			c6.3-3.6,11.3-8.4,14.9-14.5c3.6-6.1,5.4-12.9,5.4-20.3c0-7.4-1.8-14.2-5.4-20.2C364,13,359.1,8.2,352.7,4.7z"/>
		<polygon class="st4" points="478.1,65.3 477.9,65.3 477.9,45.7 478.1,45.7 478.1,32.7 477.9,32.7 477.9,13.5 478.1,13.5 
			478.1,0.5 463,0.5 463,78.3 478.1,78.3 		"/>
		<polygon class="st4" points="422.5,41.2 429.3,60 453.2,0.5 437.8,0.5 		"/>
		<polygon class="st4" points="414.8,61.5 414.7,61.7 391.8,0.5 375.8,0.5 406.6,78.3 420.9,78.3 		"/>
	</g>
</g>
</svg>
