<?xml version="1.0" encoding="utf-8"?>
<!-- Generator: Adobe Illustrator 21.1.0, SVG Export Plug-In . SVG Version: 6.00 Build 0)  -->
<svg version="1.1" id="Layer_1" xmlns="http://www.w3.org/2000/svg" xmlns:xlink="http://www.w3.org/1999/xlink" x="0px" y="0px"
	 viewBox="0 0 500 500" style="enable-background:new 0 0 500 500;" xml:space="preserve">
<style type="text/css">
	.st0{fill:#333333;}
	.st1{fill:#DAD7D6;}
	.st2{fill:#EE1E3A;}
	.st3{fill:#9B1B2E;}
	.st4{fill:#787878;}
	.st5{fill:#FFCB04;}
	.st6{fill:#7752A0;}
	.st7{fill:#4164AE;}
	.st8{fill:#34BFCB;}
	.st9{fill:#6DBD45;}
	.st10{fill:#F79923;}
	.st11{fill:#EB223B;}
</style>
<g>
	<path class="st0" d="M44.6,477.4l-4.2-9.5H19.8l-4.1,9.5H10l17.4-39.3H33l17.4,39.3H44.6z M21.9,463h16.5l-8.3-19.1L21.9,463z"/>
	<path class="st0" d="M82.7,441.6c2.7,2.3,4,5.6,4,9.8c0,4.4-1.3,7.8-4,10.2c-2.7,2.4-6.5,3.6-11.3,3.6h-9.8v12.2h-5.4v-39.3h15.1
		C76.2,438.2,80,439.3,82.7,441.6z M78.8,458.1c1.8-1.5,2.7-3.7,2.7-6.5s-0.9-4.9-2.7-6.4c-1.8-1.4-4.4-2.2-7.7-2.2l-9.5,0.1v17.2
		h9.5C74.5,460.3,77,459.6,78.8,458.1z"/>
	<path class="st0" d="M121.4,440.5c3.2,1.8,5.7,4.2,7.5,7.2c1.8,3,2.7,6.4,2.7,10.1s-0.9,7-2.7,10.1s-4.3,5.5-7.5,7.3
		s-6.6,2.7-10.4,2.7s-7.2-0.9-10.4-2.7c-3.2-1.8-5.7-4.2-7.5-7.3c-1.8-3.1-2.7-6.5-2.7-10.1c0-3.7,0.9-7,2.7-10.1
		c1.8-3,4.3-5.5,7.5-7.2c3.1-1.8,6.6-2.6,10.4-2.6C114.8,437.8,118.2,438.7,121.4,440.5z M103.4,444.7c-2.3,1.3-4.2,3.2-5.6,5.5
		s-2.1,4.8-2.1,7.6c0,2.8,0.7,5.3,2.1,7.6c1.4,2.3,3.2,4.2,5.6,5.5c2.3,1.4,4.9,2,7.6,2s5.2-0.7,7.5-2c2.3-1.4,4.1-3.2,5.5-5.5
		s2-4.9,2-7.6c0-2.8-0.7-5.3-2-7.6c-1.4-2.3-3.2-4.1-5.5-5.5c-2.3-1.3-4.8-2-7.5-2C108.3,442.6,105.8,443.3,103.4,444.7z"/>
	<path class="st0" d="M174.5,477.4h-10.6l-11.3-16.1l-5.6,6.2v9.9h-8.9v-39.3h8.9v18.3l16.3-18.3h10.3l-14.8,16.3L174.5,477.4z"/>
	<path class="st0" d="M208.5,477.4l-3.1-7.6h-18.2l-3.1,7.6H175l17.1-39.3h9.1l16.8,39.3H208.5z M190.1,462.7h12.4l-6.2-15.3
		L190.1,462.7z"/>
	<path class="st0" d="M246.2,477.4l-6.2-11.2h-0.8H231v11.2h-9v-39.3h17.1c5.1,0,9.1,1.2,11.9,3.6c2.8,2.4,4.2,5.7,4.2,10.1
		c0,3-0.6,5.6-1.9,7.8c-1.3,2.2-3.1,3.8-5.5,4.9l8.4,13h-10L246.2,477.4L246.2,477.4z M230.9,458.8h8.2c2.5,0,4.4-0.6,5.7-1.7
		s2-2.8,2-5s-0.7-3.8-2-4.9s-3.2-1.7-5.7-1.7h-8.2V458.8z"/>
	<path class="st0" d="M291.7,477.4l-3.1-7.6h-18.2l-3.1,7.6h-9.1l17.1-39.3h9.1l16.8,39.3H291.7z M273.3,462.7h12.4l-6.2-15.3
		L273.3,462.7z"/>
	<path class="st0" d="M376.4,440.2c3.2,1.8,5.8,4.2,7.6,7.3c1.9,3.1,2.8,6.5,2.8,10.3s-0.9,7.2-2.8,10.3c-1.9,3.1-4.4,5.5-7.6,7.3
		s-6.8,2.7-10.7,2.7s-7.5-0.9-10.7-2.7c-3.2-1.8-5.8-4.2-7.6-7.3c-1.9-3.1-2.8-6.5-2.8-10.4c0-3.8,0.9-7.2,2.8-10.3
		c1.9-3.1,4.4-5.5,7.6-7.3s6.8-2.6,10.7-2.6S373.2,438.4,376.4,440.2z M359.7,446.9c-1.9,1.1-3.3,2.6-4.4,4.5s-1.6,4-1.6,6.3
		s0.6,4.4,1.7,6.3s2.6,3.4,4.4,4.5c1.9,1.1,3.9,1.7,6,1.7c2.2,0,4.2-0.6,6-1.7s3.3-2.6,4.3-4.5c1.1-1.9,1.6-4,1.6-6.4
		c0-2.3-0.5-4.4-1.6-6.3s-2.5-3.4-4.3-4.5s-3.8-1.7-6-1.7C363.6,445.3,361.6,445.8,359.7,446.9z"/>
	<g>
		<polygon class="st0" points="401.5,467.5 428.1,438.2 417.7,438.2 401.5,456.4 401.5,438.2 392.6,438.2 392.6,477.4 401.5,477.4 
			401.5,467.6 		"/>
		<polygon class="st0" points="409.4,464.7 418.4,477.4 429,477.4 415.6,457.9 		"/>
	</g>
	<path class="st0" d="M433.9,438.2h8.9v39.3h-8.9V438.2z"/>
	<polygon class="st0" points="473.2,438.2 464.1,438.2 447,477.4 456.2,477.4 459.3,469.8 472,469.8 469.2,462.7 462.2,462.7 
		468.4,447.4 474.6,462.7 474.6,462.7 477.4,469.8 477.4,469.8 480.5,477.4 490,477.4 	"/>
	<g>
		<rect x="305.2" y="438.2" class="st0" width="8.8" height="39.3"/>
		<path class="st0" d="M332.6,440.6c-3.1-1.7-6.7-2.5-10.7-2.5h-2.4v7.5h2.3c2.2,0,4.3,0.5,6,1.5c1.8,1,3.2,2.5,4.2,4.3
			c1,1.9,1.5,4,1.5,6.3s-0.5,4.5-1.5,6.3s-2.3,3.3-4.1,4.3c-1.7,1-3.7,1.5-5.9,1.5h-2.7v7.5h2.1c4.1,0,7.7-0.8,10.9-2.5
			c3.2-1.7,5.7-4,7.4-7c1.8-3,2.7-6.4,2.7-10.2c0-3.8-0.9-7.2-2.6-10.2C338.2,444.6,335.8,442.3,332.6,440.6z"/>
	</g>
</g>
<g>
	<path class="st1" d="M44.6,476.4l-4.2-9.5H19.8l-4.1,9.5H10l17.4-39.3H33l17.4,39.3H44.6z M21.9,462h16.5l-8.3-19.1L21.9,462z"/>
	<path class="st1" d="M82.7,440.6c2.7,2.3,4,5.6,4,9.8c0,4.4-1.3,7.8-4,10.2c-2.7,2.4-6.5,3.6-11.3,3.6h-9.8v12.2h-5.4v-39.3h15.1
		C76.2,437.2,80,438.3,82.7,440.6z M78.8,457.1c1.8-1.5,2.7-3.7,2.7-6.5s-0.9-4.9-2.7-6.4c-1.8-1.4-4.4-2.2-7.7-2.2l-9.5,0.1v17.2
		h9.5C74.5,459.3,77,458.6,78.8,457.1z"/>
	<path class="st1" d="M121.4,439.5c3.2,1.8,5.7,4.2,7.5,7.2c1.8,3,2.7,6.4,2.7,10.1s-0.9,7-2.7,10.1s-4.3,5.5-7.5,7.3
		s-6.6,2.7-10.4,2.7s-7.2-0.9-10.4-2.7c-3.2-1.8-5.7-4.2-7.5-7.3c-1.8-3.1-2.7-6.5-2.7-10.1c0-3.7,0.9-7,2.7-10.1
		c1.8-3,4.3-5.5,7.5-7.2c3.1-1.8,6.6-2.6,10.4-2.6C114.8,436.8,118.2,437.7,121.4,439.5z M103.4,443.7c-2.3,1.3-4.2,3.2-5.6,5.5
		s-2.1,4.8-2.1,7.6c0,2.8,0.7,5.3,2.1,7.6c1.4,2.3,3.2,4.2,5.6,5.5c2.3,1.4,4.9,2,7.6,2s5.2-0.7,7.5-2c2.3-1.4,4.1-3.2,5.5-5.5
		s2-4.9,2-7.6c0-2.8-0.7-5.3-2-7.6c-1.4-2.3-3.2-4.1-5.5-5.5c-2.3-1.3-4.8-2-7.5-2C108.3,441.6,105.8,442.3,103.4,443.7z"/>
	<path class="st2" d="M174.5,476.4h-10.6l-11.3-16.1l-5.6,6.2v9.9h-8.9v-39.3h8.9v18.3l16.3-18.3h10.3l-14.8,16.3L174.5,476.4z"/>
	<path class="st2" d="M208.5,476.4l-3.1-7.6h-18.2l-3.1,7.6H175l17.1-39.3h9.1l16.8,39.3H208.5z M190.1,461.7h12.4l-6.2-15.3
		L190.1,461.7z"/>
	<path class="st2" d="M246.2,476.4l-6.2-11.2h-0.8H231v11.2h-9v-39.3h17.1c5.1,0,9.1,1.2,11.9,3.6c2.8,2.4,4.2,5.7,4.2,10.1
		c0,3-0.6,5.6-1.9,7.8c-1.3,2.2-3.1,3.8-5.5,4.9l8.4,13h-10L246.2,476.4L246.2,476.4z M230.9,457.8h8.2c2.5,0,4.4-0.6,5.7-1.7
		s2-2.8,2-5s-0.7-3.8-2-4.9s-3.2-1.7-5.7-1.7h-8.2V457.8z"/>
	<path class="st2" d="M291.7,476.4l-3.1-7.6h-18.2l-3.1,7.6h-9.1l17.1-39.3h9.1l16.8,39.3H291.7z M273.3,461.7h12.4l-6.2-15.3
		L273.3,461.7z"/>
	<path class="st3" d="M376.4,439.2c3.2,1.8,5.8,4.2,7.6,7.3c1.9,3.1,2.8,6.5,2.8,10.3s-0.9,7.2-2.8,10.3c-1.9,3.1-4.4,5.5-7.6,7.3
		s-6.8,2.7-10.7,2.7s-7.5-0.9-10.7-2.7c-3.2-1.8-5.8-4.2-7.6-7.3c-1.9-3.1-2.8-6.5-2.8-10.4c0-3.8,0.9-7.2,2.8-10.3
		c1.9-3.1,4.4-5.5,7.6-7.3s6.8-2.6,10.7-2.6S373.2,437.4,376.4,439.2z M359.7,445.9c-1.9,1.1-3.3,2.6-4.4,4.5s-1.6,4-1.6,6.3
		s0.6,4.4,1.7,6.3s2.6,3.4,4.4,4.5c1.9,1.1,3.9,1.7,6,1.7c2.2,0,4.2-0.6,6-1.7s3.3-2.6,4.3-4.5c1.1-1.9,1.6-4,1.6-6.4
		c0-2.3-0.5-4.4-1.6-6.3s-2.5-3.4-4.3-4.5s-3.8-1.7-6-1.7C363.6,444.3,361.6,444.8,359.7,445.9z"/>
	<g>
		<polygon class="st3" points="401.5,466.5 428.1,437.2 417.7,437.2 401.5,455.4 401.5,437.2 392.6,437.2 392.6,476.4 401.5,476.4 
			401.5,466.6 		"/>
		<polygon class="st3" points="409.4,463.7 418.4,476.4 429,476.4 415.6,456.9 		"/>
	</g>
	<path class="st3" d="M433.9,437.2h8.9v39.3h-8.9V437.2z"/>
	<polygon class="st3" points="473.2,437.2 464.1,437.2 447,476.4 456.2,476.4 459.3,468.8 472,468.8 469.2,461.7 462.2,461.7 
		468.4,446.4 474.6,461.7 474.6,461.7 477.4,468.8 477.4,468.8 480.5,476.4 490,476.4 	"/>
	<g>
		<rect x="305.2" y="437.2" class="st3" width="8.8" height="39.3"/>
		<path class="st3" d="M332.6,439.6c-3.1-1.7-6.7-2.5-10.7-2.5h-2.4v7.5h2.3c2.2,0,4.3,0.5,6,1.5c1.8,1,3.2,2.5,4.2,4.3
			c1,1.9,1.5,4,1.5,6.3s-0.5,4.5-1.5,6.3s-2.3,3.3-4.1,4.3c-1.7,1-3.7,1.5-5.9,1.5h-2.7v7.5h2.1c4.1,0,7.7-0.8,10.9-2.5
			c3.2-1.7,5.7-4,7.4-7c1.8-3,2.7-6.4,2.7-10.2c0-3.8-0.9-7.2-2.6-10.2C338.2,443.6,335.8,441.3,332.6,439.6z"/>
	</g>
</g>
<g>
	<circle cx="250" cy="205.6" r="181.1"/>
	<path class="st4" d="M250,24.5c100,0,181.1,81.1,181.1,181.1S350,386.7,250,386.7S69,305.6,69,205.6S150,24.5,250,24.5 M250,5.6
		c-27,0-53.2,5.3-77.9,15.7c-23.8,10.1-45.2,24.5-63.6,42.9s-32.8,39.7-42.9,63.6C55.3,152.4,50,178.6,50,205.6s5.3,53.2,15.7,77.9
		c10.1,23.8,24.5,45.2,42.9,63.6s39.7,32.8,63.6,42.9c24.7,10.4,50.9,15.7,77.9,15.7s53.2-5.3,77.9-15.7
		c23.8-10.1,45.2-24.5,63.6-42.9s32.8-39.7,42.9-63.6c10.4-24.7,15.7-50.9,15.7-77.9s-5.3-53.2-15.7-77.9
		c-10.1-23.8-24.5-45.2-42.9-63.6S351.9,31.3,328,21.2C303.2,10.9,277,5.6,250,5.6L250,5.6z"/>
	<polygon class="st5" points="106.6,218.9 106.6,240 72.1,205.5 106.6,171 106.6,192.1 341.7,192.1 362.8,171 428,171 393.5,205.5 
		428,240 362.8,240 341.7,218.9 	"/>
	<polygon class="st6" points="106.6,218.9 106.6,240 72.1,205.5 106.6,171 106.6,192.1 341.7,192.1 362.8,171 428,171 393.5,205.5 
		428,240 362.8,240 341.7,218.9 	"/>
	<polygon class="st7" points="115,155.4 105.8,174.4 89.7,128.3 135.8,112.2 126.6,131.2 338.5,233.2 366.6,223.3 425.3,251.6 
		379.3,267.7 395.4,313.8 336.7,285.5 326.8,257.4 	"/>
	<polygon class="st8" points="150.1,101.7 133.6,114.9 139.1,66.4 187.6,71.8 171.1,85 317.7,268.8 347.3,272.1 388,323.1 
		339.5,317.6 334,366.1 293.4,315.2 296.7,285.5 	"/>
	<polygon class="st9" points="205,68.6 184.4,73.3 210.4,32 251.7,58 231.2,62.7 283.5,291.9 308.8,307.8 323.3,371.3 282,345.3 
		256,386.7 241.5,323.1 257.4,297.9 	"/>
	<polygon class="st5" points="268.8,62.7 248.3,58 289.6,32 315.6,73.3 295,68.6 242.7,297.9 258.6,323.1 244.1,386.7 218.2,345.3 
		176.8,371.3 191.3,307.8 216.6,291.9 	"/>
	<polygon class="st10" points="328.9,85 312.4,71.8 360.9,66.3 366.4,114.8 349.9,101.7 203.4,285.6 206.7,315.2 166.1,366.2 
		160.6,317.7 112.2,323.2 152.8,272.2 182.4,268.8 	"/>
	<polygon class="st11" points="373.4,131.1 364.3,112.1 410.3,128.2 394.2,174.3 385.1,155.3 173.3,257.4 163.4,285.6 104.7,313.9 
		120.8,267.8 74.8,251.7 133.5,223.4 161.6,233.2 	"/>
</g>
</svg>
