<?xml version="1.0" encoding="utf-8"?>
<!-- Generator: Adobe Illustrator 21.1.0, SVG Export Plug-In . SVG Version: 6.00 Build 0)  -->
<svg version="1.1" id="Layer_1" xmlns="http://www.w3.org/2000/svg" xmlns:xlink="http://www.w3.org/1999/xlink" x="0px" y="0px"
	 viewBox="0 0 300 300" style="enable-background:new 0 0 300 300;" xml:space="preserve">
<style type="text/css">
	.st0{fill:#9500FF;}
	.st1{fill:#4164AE;}
	.st2{fill:#FFCB05;}
	.st3{fill:#F89A21;}
	.st4{fill:#31BFCB;}
	.st5{fill:#FFCA05;}
	.st6{fill:#8DC646;}
	.st7{fill:#70BE45;}
	.st8{fill:#787878;}
	.st9{fill:#FFCB04;}
	.st10{fill:#7752A0;}
	.st11{fill:#34BFCB;}
	.st12{fill:#6DBD45;}
	.st13{fill:#F79923;}
	.st14{fill:#EB223B;}
</style>
<g>
	<g>
		<polygon class="st0" points="107.4,49.2 92.6,49.2 116.9,25 141.1,49.2 126.3,49.2 126.3,214.4 141.1,229.2 141.1,275 
			116.9,250.8 92.6,275 92.6,229.2 107.4,214.4 		"/>
	</g>
	<g>
		<g>
			<path class="st5" d="M125.1,131.9l-17.4,7.7v18.1l38.6-16.1l-11.1-14.3L125.1,131.9z M170.9,131.4l43.8-20.4V90l-55.4,26.5
				l-27.1-35v30.4l84.7,109.5h23.9L170.9,131.4z"/>
		</g>
	</g>
	<g>
		<path class="st5" d="M150,48.3c52.3,0,94.8,42.4,94.8,94.8c0,19.7-6,37.9-16.2,53.1l10.3,13.2c13.8-18.5,22.1-41.5,22.1-66.3
			C260.8,82,211.1,32.3,150,32.3c-5.6,0-11,0.4-16.4,1.2l14.9,14.9C149,48.4,149.5,48.3,150,48.3z"/>
		<path class="st5" d="M39.2,143.1c0,37.6,18.9,70.9,47.6,91v-7.3l7.2-7.2c-23.5-17.2-38.8-45.1-38.8-76.4
			c0-34.6,18.6-64.9,46.4-81.5v-6.6H82.7C56.3,75.4,39.2,107.3,39.2,143.1z"/>
		<path class="st5" d="M214,227.3l-6.7-8.7c-15.9,12.1-35.8,19.3-57.3,19.3c-1,0-2,0-3.1-0.1v16.1c1,0,2,0.1,3.1,0.1
			c27.5,0,52.6-10.1,72-26.7H214z"/>
	</g>
</g>
</svg>
