<?xml version="1.0" encoding="utf-8"?>
<!-- Generator: Adobe Illustrator 21.1.0, SVG Export Plug-In . SVG Version: 6.00 Build 0)  -->
<svg version="1.1" id="Layer_1" xmlns="http://www.w3.org/2000/svg" xmlns:xlink="http://www.w3.org/1999/xlink" x="0px" y="0px"
	 viewBox="0 0 145 33.1" style="enable-background:new 0 0 145 33.1;" xml:space="preserve">
<style type="text/css">
	.st0{fill:#777778;}
	.st1{fill:#31BFCB;}
	.st2{fill:#8DC646;}
</style>
<g>
	<path class="st0" d="M58.2,33.1l-3.9-8.8H36l-3.9,8.8h-3.5L43.5,0h3.4l14.9,33.1H58.2z M37.3,21.3h15.8l-8-17.8L37.3,21.3z"/>
</g>
<g>
	<polygon class="st1" points="70,29.3 81.7,0 75.2,0 67.1,21.4 	"/>
</g>
<g>
	<polygon class="st1" points="65.4,25.9 65.4,26 53.6,0 46.8,0 61.9,33.1 68.1,33.1 	"/>
</g>
<g>
	<path class="st2" d="M21,19.8l-0.3,0.7C20,20.8,19.4,21,19,21.1s-0.8,0.2-1.1,0.2c-0.6,0-1-0.2-1.2-0.4c-0.2-0.3-0.3-0.7-0.2-1.1
		c0-0.2,0.1-0.3,0.2-0.5s0.2-0.4,0.3-0.7l1.9-4c0.1-0.3,0.3-0.6,0.4-0.8c0.1-0.3,0.2-0.5,0.2-0.6c0.1-0.5,0.1-0.9-0.1-1.1
		c-0.1-0.3-0.4-0.4-0.9-0.4s-1,0.1-1.5,0.3s-1.1,0.6-1.8,1.3l-3.6,8h-2l3.2-7.2c0.1-0.2,0.1-0.3,0.2-0.5c0.1-0.2,0.1-0.3,0.1-0.4
		c0.1-0.5,0.1-0.8-0.1-1.1c-0.2-0.3-0.5-0.4-0.9-0.4s-0.9,0.1-1.4,0.3s-1.2,0.7-2,1.4L5.2,21h-2l3.1-7c0.1-0.3,0.2-0.5,0.3-0.8
		c0.1-0.3,0.2-0.5,0.2-0.7c0.1-0.4,0.1-0.7,0-0.8S6.4,11.5,6,11.5c-0.2,0-0.4,0-0.6,0.1c-0.3,0.1-0.5,0.1-0.6,0.1L5.1,11
		c0.6-0.3,1.2-0.4,1.6-0.6c0.5-0.1,0.8-0.2,1.2-0.2c0.6,0,1,0.2,1.1,0.5C9.2,11,9.2,11.5,9.1,12h0.1c1-0.7,1.8-1.1,2.4-1.4
		c0.6-0.3,1.3-0.4,2-0.4c0.6,0,1.1,0.2,1.4,0.6c0.3,0.4,0.4,0.8,0.4,1.4l0,0c0.9-0.6,1.7-1.1,2.4-1.5c0.7-0.3,1.4-0.5,2.2-0.5
		c0.7,0,1.2,0.2,1.5,0.6c0.3,0.4,0.4,0.9,0.2,1.6c0,0.1-0.1,0.4-0.2,0.7s-0.2,0.7-0.4,1l-1.6,3.5c-0.1,0.2-0.2,0.5-0.4,0.8
		c-0.1,0.3-0.2,0.5-0.2,0.7c-0.1,0.4-0.1,0.7,0.1,0.8c0.1,0.1,0.4,0.2,0.8,0.2c0.1,0,0.3,0,0.6-0.1C20.7,19.9,20.9,19.9,21,19.8z"/>
	<path class="st2" d="M29.5,19.5L29.5,19.5c-0.8,0.6-1.6,1-2.2,1.3c-0.7,0.3-1.4,0.5-2.1,0.5s-1.2-0.2-1.5-0.6s-0.4-0.9-0.3-1.6
		c0-0.2,0.1-0.4,0.2-0.6s0.2-0.6,0.4-1.1l1.6-3.4c0.1-0.3,0.3-0.6,0.4-0.8s0.2-0.5,0.2-0.7c0.1-0.4,0.1-0.7,0-0.8s-0.4-0.2-0.8-0.2
		c-0.2,0-0.4,0-0.6,0.1c-0.3,0.1-0.5,0.1-0.6,0.1l0.3-0.7c0.6-0.3,1.2-0.4,1.6-0.6c0.5-0.1,0.8-0.2,1.1-0.2c0.6,0,1,0.1,1.2,0.4
		c0.2,0.3,0.3,0.6,0.2,1.2c0,0.1-0.1,0.3-0.2,0.5s-0.2,0.4-0.3,0.7l-1.9,4c-0.1,0.3-0.3,0.6-0.4,0.8c-0.1,0.3-0.2,0.5-0.2,0.6
		c-0.1,0.5-0.1,0.9,0.1,1.1c0.2,0.3,0.5,0.4,0.9,0.4c0.5,0,1.1-0.1,1.6-0.4c0.6-0.3,1.1-0.6,1.6-1.1l3.5-8.1l1.9-0.1l0.1,0.2
		l-3.7,8.5c-0.5,1.2-1.1,2.3-1.7,3.2c-0.6,0.9-1.3,1.6-1.9,2.1c-0.7,0.6-1.4,1-2.2,1.2c-0.7,0.3-1.6,0.4-2.4,0.4
		c-0.6,0-1.1,0-1.4-0.1s-0.6-0.2-0.8-0.4c-0.2-0.1-0.3-0.3-0.3-0.5s0-0.4,0-0.5c0.1-0.3,0.2-0.6,0.5-0.8c0.2-0.2,0.5-0.4,0.9-0.4
		c0.3,0,0.5,0.1,0.6,0.2c0.2,0.2,0.3,0.3,0.3,0.5c0.1,0.2,0.2,0.4,0.2,0.7c0.1,0.2,0.1,0.4,0.1,0.6h0.3c0.4,0,0.9-0.1,1.4-0.3
		c0.5-0.2,1-0.5,1.5-0.9c0.5-0.5,1-1.1,1.5-1.8C28.6,21.4,29.1,20.5,29.5,19.5z"/>
</g>
<g>
	<path class="st1" d="M86.9,19.6L86.9,19.6c-0.2,0.1-0.4,0.3-0.6,0.5c-0.2,0.2-0.5,0.4-0.8,0.6c-0.3,0.2-0.6,0.3-0.9,0.5
		c-0.3,0.1-0.7,0.2-1.1,0.2c-1,0-1.9-0.4-2.4-1.1s-0.9-1.8-0.9-3.1c0-0.9,0.2-1.8,0.5-2.6c0.3-0.8,0.8-1.6,1.4-2.3
		c0.6-0.6,1.2-1.2,2-1.5c0.8-0.4,1.5-0.6,2.3-0.6c0.5,0,1,0.1,1.5,0.2c0.5,0.1,0.8,0.3,1.1,0.5l2-0.5l0.1,0.2l-1.6,6.9
		c-0.1,0.2-0.1,0.5-0.2,0.8c-0.1,0.3-0.1,0.6-0.1,0.7c0,0.4,0.1,0.7,0.3,0.8c0.2,0.1,0.5,0.2,0.9,0.2c0.1,0,0.3,0,0.6-0.1
		s0.4-0.1,0.6-0.1l-0.2,0.7c-0.6,0.3-1.1,0.4-1.4,0.6c-0.3,0.1-0.7,0.2-1.2,0.2c-0.5,0-0.9-0.2-1.2-0.5C87.1,20.4,86.9,20,86.9,19.6
		z M88.4,12.8c0-0.2,0-0.5-0.1-0.7s-0.2-0.4-0.3-0.6c-0.1-0.2-0.3-0.3-0.6-0.4c-0.3-0.1-0.6-0.2-0.9-0.2c-0.5,0-1,0.2-1.5,0.5
		c-0.5,0.3-0.9,0.8-1.3,1.4c-0.4,0.5-0.7,1.2-0.9,2c-0.2,0.8-0.4,1.6-0.4,2.4c0,0.4,0,0.8,0.1,1.2s0.1,0.6,0.3,0.9
		c0.1,0.3,0.3,0.5,0.6,0.6c0.3,0.2,0.6,0.2,1,0.2c0.4,0,0.8-0.1,1.3-0.3s0.9-0.6,1.5-1.2L88.4,12.8z"/>
	<path class="st1" d="M99.6,19.5L99.6,19.5c-0.2,0.1-0.4,0.3-0.7,0.5c-0.3,0.2-0.5,0.4-0.8,0.6c-0.3,0.2-0.7,0.4-1,0.5
		c-0.3,0.1-0.6,0.2-1.1,0.2c-1,0-1.9-0.4-2.4-1.1c-0.6-0.7-0.9-1.8-0.9-3.1c0-0.9,0.2-1.8,0.5-2.6c0.3-0.8,0.8-1.6,1.3-2.2
		c0.5-0.6,1.2-1.1,1.9-1.5c0.8-0.4,1.5-0.6,2.4-0.6c0.5,0,1,0.1,1.5,0.2c0.5,0.1,0.9,0.3,1.2,0.5l0.8-3.7c0-0.2,0.1-0.3,0.1-0.5
		c0-0.1,0-0.2,0-0.4c0-0.3-0.1-0.5-0.2-0.6c-0.1-0.1-0.2-0.2-0.4-0.3c-0.2-0.1-0.4-0.1-0.7-0.1s-0.6,0-0.8-0.1l0.2-0.7l4.4-0.2
		l0.1,0.2l-3,12.9c-0.1,0.2-0.1,0.5-0.2,0.8c-0.1,0.3-0.1,0.5-0.1,0.7c0,0.4,0.1,0.7,0.3,0.8c0.2,0.1,0.5,0.2,0.9,0.2
		c0.1,0,0.3,0,0.6-0.1s0.4-0.1,0.6-0.1l-0.2,0.7c-0.6,0.3-1.1,0.5-1.5,0.6s-0.8,0.2-1.1,0.2c-0.5,0-0.9-0.1-1.2-0.4
		S99.6,20.1,99.6,19.5z M101.1,12.7c0-0.2-0.1-0.4-0.2-0.6c-0.1-0.2-0.2-0.4-0.4-0.5c-0.2-0.2-0.4-0.3-0.6-0.4
		c-0.3-0.1-0.6-0.2-0.9-0.2c-0.6,0-1.1,0.2-1.6,0.5c-0.5,0.3-0.9,0.8-1.3,1.4c-0.4,0.6-0.6,1.2-0.9,2c-0.2,0.8-0.3,1.6-0.3,2.3
		c0,0.4,0,0.8,0.1,1.2s0.1,0.6,0.3,0.9c0.1,0.3,0.3,0.5,0.6,0.6c0.3,0.2,0.6,0.2,1,0.2c0.4,0,0.8-0.1,1.3-0.4c0.5-0.2,1-0.6,1.5-1.2
		L101.1,12.7z"/>
	<path class="st1" d="M123.4,19.8l-0.2,0.7c-0.7,0.3-1.2,0.4-1.6,0.6c-0.4,0.1-0.7,0.2-1,0.2c-0.6,0-1-0.1-1.3-0.4
		c-0.3-0.3-0.4-0.7-0.4-1.1c0-0.2,0-0.3,0-0.5s0.1-0.4,0.1-0.7l1.1-4c0.1-0.3,0.1-0.6,0.2-0.8s0.1-0.5,0.1-0.6
		c0-0.5-0.1-0.9-0.3-1.1s-0.5-0.4-1-0.4c-0.5,0-0.9,0.1-1.4,0.3c-0.5,0.2-1,0.6-1.6,1.3l-1.9,8h-2l1.7-7.2c0-0.2,0.1-0.3,0.1-0.5
		c0-0.2,0-0.3,0-0.4c0-0.5-0.1-0.8-0.3-1.1s-0.6-0.4-1-0.4c-0.4,0-0.9,0.1-1.3,0.3s-1.1,0.7-1.7,1.4l-1.8,7.9h-2l1.6-7
		c0.1-0.3,0.1-0.5,0.2-0.8c0.1-0.3,0.1-0.5,0.1-0.7c0-0.4-0.1-0.7-0.2-0.8c-0.1-0.1-0.4-0.2-0.8-0.2c-0.2,0-0.4,0-0.6,0.1
		c-0.2,0.1-0.4,0.1-0.6,0.1l0.2-0.7c0.6-0.3,1.1-0.4,1.5-0.6c0.4-0.1,0.8-0.2,1.1-0.2c0.6,0,1,0.2,1.2,0.5s0.4,0.7,0.4,1.3h0.1
		c0.8-0.7,1.5-1.1,2.1-1.4c0.5-0.3,1.2-0.4,1.9-0.4c0.6,0,1.2,0.2,1.6,0.6c0.4,0.4,0.6,0.8,0.7,1.4h0c0.8-0.6,1.4-1.1,2-1.5
		s1.3-0.5,2.1-0.5c0.7,0,1.2,0.2,1.6,0.6c0.4,0.4,0.6,0.9,0.6,1.6c0,0.1,0,0.4-0.1,0.7c0,0.3-0.1,0.7-0.2,1l-0.9,3.5
		c-0.1,0.2-0.1,0.5-0.2,0.8c-0.1,0.3-0.1,0.5-0.1,0.7c0,0.4,0.1,0.7,0.3,0.8c0.2,0.1,0.5,0.2,0.9,0.2c0.1,0,0.3,0,0.6-0.1
		S123.2,19.8,123.4,19.8z"/>
	<path class="st1" d="M129.9,19.8l-0.2,0.7c-0.7,0.3-1.2,0.4-1.6,0.6c-0.4,0.1-0.7,0.2-1,0.2c-0.6,0-1-0.1-1.3-0.4s-0.4-0.7-0.4-1.1
		c0-0.2,0-0.3,0-0.5c0-0.2,0.1-0.4,0.1-0.7l1.1-4.6c0.1-0.3,0.1-0.5,0.2-0.8s0.1-0.5,0.1-0.7c0-0.4-0.1-0.7-0.2-0.8
		c-0.1-0.1-0.4-0.2-0.8-0.2c-0.2,0-0.4,0-0.6,0.1c-0.3,0.1-0.5,0.1-0.6,0.1l0.2-0.7c0.6-0.3,1.1-0.4,1.5-0.6
		c0.4-0.1,0.8-0.2,1.1-0.2c0.6,0,1,0.1,1.3,0.4s0.4,0.7,0.4,1.1c0,0.1,0,0.3,0,0.5s-0.1,0.4-0.1,0.7l-1.1,4.6
		c-0.1,0.3-0.1,0.6-0.2,0.8c-0.1,0.3-0.1,0.5-0.1,0.7c0,0.4,0.1,0.7,0.3,0.8c0.2,0.2,0.5,0.2,0.9,0.2c0.1,0,0.3,0,0.6-0.1
		C129.6,19.9,129.8,19.9,129.9,19.8z M130.7,6.1c0,0.4-0.1,0.8-0.4,1.1c-0.3,0.3-0.6,0.5-1,0.5c-0.4,0-0.7-0.1-0.9-0.4
		s-0.4-0.6-0.4-1c0-0.4,0.1-0.7,0.4-1c0.3-0.3,0.6-0.4,0.9-0.4c0.4,0,0.7,0.1,1,0.4C130.6,5.4,130.7,5.7,130.7,6.1z"/>
	<path class="st1" d="M142.9,19.8l-0.2,0.7c-0.6,0.3-1.1,0.4-1.5,0.6c-0.4,0.1-0.7,0.2-1.1,0.2c-0.6,0-1-0.1-1.3-0.4
		c-0.3-0.3-0.4-0.7-0.4-1.1c0-0.2,0-0.3,0-0.5s0.1-0.4,0.1-0.7l1.1-4c0.1-0.3,0.1-0.6,0.2-0.8s0.1-0.5,0.1-0.6
		c0-0.5-0.1-0.9-0.3-1.1s-0.6-0.4-1-0.4c-0.4,0-0.9,0.1-1.5,0.4c-0.5,0.3-1,0.7-1.5,1.2l-1.8,7.9h-2l1.6-7c0-0.2,0.1-0.4,0.2-0.7
		s0.1-0.6,0.1-0.8c0-0.4-0.1-0.7-0.2-0.8c-0.1-0.1-0.4-0.2-0.8-0.2c-0.2,0-0.4,0-0.6,0.1s-0.4,0.1-0.6,0.1l0.2-0.7
		c0.6-0.3,1.1-0.4,1.5-0.6c0.4-0.1,0.8-0.2,1.1-0.2c0.6,0,1,0.2,1.2,0.5c0.2,0.3,0.4,0.7,0.4,1.3h0.1c0.8-0.6,1.5-1.1,2-1.4
		c0.6-0.3,1.2-0.5,1.9-0.5c0.7,0,1.2,0.2,1.6,0.6c0.4,0.4,0.6,0.9,0.6,1.6c0,0.1,0,0.4-0.1,0.7c0,0.3-0.1,0.7-0.2,1l-0.9,3.5
		c-0.1,0.2-0.1,0.5-0.2,0.8c-0.1,0.3-0.1,0.5-0.1,0.7c0,0.4,0.1,0.7,0.3,0.8c0.2,0.1,0.5,0.2,0.9,0.2c0.1,0,0.3,0,0.6-0.1
		C142.6,19.9,142.8,19.8,142.9,19.8z"/>
</g>
</svg>
