<?xml version="1.0" encoding="utf-8"?>
<!-- Generator: Adobe Illustrator 21.1.0, SVG Export Plug-In . SVG Version: 6.00 Build 0)  -->
<svg version="1.1" id="Layer_1" xmlns="http://www.w3.org/2000/svg" xmlns:xlink="http://www.w3.org/1999/xlink" x="0px" y="0px"
	 viewBox="0 0 300 300" style="enable-background:new 0 0 300 300;" xml:space="preserve">
<style type="text/css">
	.st0{fill:#9500FF;}
	.st1{fill:#4164AE;}
	.st2{fill:#FFCB05;}
	.st3{fill:#F89A21;}
	.st4{fill:#31BFCB;}
	.st5{fill:#FFCA05;}
	.st6{fill:#8DC646;}
	.st7{fill:#70BE45;}
	.st8{fill:#787878;}
	.st9{fill:#FFCB04;}
	.st10{fill:#7752A0;}
	.st11{fill:#34BFCB;}
	.st12{fill:#6DBD45;}
	.st13{fill:#F79923;}
	.st14{fill:#EB223B;}
</style>
<g>
	<path class="st3" d="M106.7,107.6l43.6-44.1l43.6,44.1h21.9l-65.5-66.2l-65.5,66.2H106.7z"/>
	<path class="st3" d="M184.6,93.7l3.7-5l23.6-23.8l42.2,42.7h21.2l-63.4-64.1l-37.4,37.8l0.9,0.3L184.6,93.7z"/>
	<path class="st3" d="M126,76.9L90.8,41.3l-65.5,66.2h21.9l43.6-44.1l24.4,24.7L126,76.9z"/>
	<g>
		<rect x="189.6" y="149.5" class="st3" width="85.7" height="16"/>
		<rect x="210.7" y="118" class="st3" width="64.6" height="16"/>
		<rect x="168.5" y="180.9" class="st3" width="106.8" height="16"/>
	</g>
	<g>
		<rect x="25.3" y="149.5" class="st3" width="85.7" height="16"/>
		<rect x="25.3" y="118" class="st3" width="64.6" height="16"/>
		<rect x="25.3" y="180.9" class="st3" width="106.8" height="16"/>
	</g>
	<polygon class="st7" points="174.5,258.7 174.5,213 159.7,198.3 159.7,109.2 174.5,109.2 150.3,85.1 126.1,109.2 140.9,109.2 
		140.9,198.3 126.1,213 126.1,258.7 150.3,234.5 	"/>
</g>
</svg>
