<?xml version="1.0" encoding="utf-8"?>
<!-- Generator: Adobe Illustrator 21.1.0, SVG Export Plug-In . SVG Version: 6.00 Build 0)  -->
<svg version="1.1" id="Layer_1" xmlns="http://www.w3.org/2000/svg" xmlns:xlink="http://www.w3.org/1999/xlink" x="0px" y="0px"
	 viewBox="0 0 500 500" style="enable-background:new 0 0 500 500;" xml:space="preserve">
<style type="text/css">
	.st0{opacity:0.5;}
	.st1{fill:#8DC646;}
	.st2{fill:#31BFCB;}
	.st3{fill:url(#SVGID_1_);}
	.st4{opacity:0.5;fill:#FFFFFF;}
</style>
<path class="st0" d="M224.8,355.8l-88.6-202.2h28.7l59.7,134.8l0.8,66.8L224.8,355.8z M273.9,355.2l0.7,0.6l88.6-202.2h-28.7
	l-59.7,134.8L273.9,355.2z M266.1,160c18.6,3.2,33.6,11.9,46.6,24.2l15.9-36.6c-17.2-16.5-37.5-27.9-62.5-31.5V70.3H292L249.6,28
	l-42.3,42.3h25.9v45.8c-24.9,3.5-45.2,15.1-62.4,31.5l16.2,36.6c12.7-12.2,27.7-20.9,46.2-24.1v198.3l-25.9,25.8V464l42.3-42.3
	L292,464v-79.8l-25.9-25.8V160z M99,267.9c-25.6,57.5-50,112-93.3,112v5.1v5.1c69.8,0,99.1-60.6,127.5-119
	c8.2-16.9,16.2-33.4,25.1-48.5l-16.9-38.4C124.9,209.8,111.6,239.6,99,267.9z M493.8,382.4v-2.6c-43.2,0-67.6-54.3-93.3-112
	c-12.6-28.3-25.9-58.1-42.4-83.7l-16.8,38.3c8.9,15.1,16.9,31.6,25.1,48.5c28.3,58.6,57.7,119,127.5,119v-2.6L493.8,382.4z"/>
<g>
	<g>
		<polygon class="st1" points="225.5,354.2 224.7,287.4 164.9,152.6 136.3,152.6 224.8,354.8 		"/>
		<polygon class="st1" points="273.9,354.2 274.7,287.4 334.4,152.6 363.1,152.6 274.6,354.8 		"/>
	</g>
	<g>
		<polygon class="st2" points="266.1,69.3 292,69.3 249.6,27 207.4,69.3 233.3,69.3 233.3,357.4 207.4,383.2 207.4,463 249.6,420.7 
			292,463 292,383.2 266.1,357.4 		"/>
	</g>
	<g>
		<path class="st1" d="M141.4,183.2c-16.5,25.6-29.8,55.4-42.4,83.7c-25.6,57.5-50,112-93.3,112v5.1v5.1c69.8,0,99.1-60.6,127.5-119
			c8.2-16.9,16.2-33.4,25.1-48.5L141.4,183.2z"/>
		<path class="st1" d="M493.8,381.4v-2.6c-43.2,0-67.6-54.3-93.3-112c-12.6-28.3-25.9-58.1-42.4-83.7l-16.8,38.3
			c8.9,15.1,16.9,31.6,25.1,48.5c28.3,58.6,57.7,119,127.5,119v-2.6l0,0L493.8,381.4L493.8,381.4z"/>
		<path class="st1" d="M328.6,146.6c-19.7-18.8-43.5-31.2-73.7-32.6v-0.1h-5.1h-5.1v0.1c-30.2,1.2-54,13.7-73.7,32.6l16.2,36.6
			c16.4-15.7,36.3-25.5,62.8-25.5s46.3,9.8,62.8,25.5L328.6,146.6z"/>
	</g>
</g>
<linearGradient id="SVGID_1_" gradientUnits="userSpaceOnUse" x1="98.1494" y1="178.4934" x2="401.2428" y2="481.5869">
	<stop  offset="0" style="stop-color:#000000;stop-opacity:0"/>
	<stop  offset="1" style="stop-color:#000000;stop-opacity:0.2"/>
</linearGradient>
<path class="st3" d="M224.8,354.8l-88.6-202.2h28.7l59.7,134.8l0.8,66.8L224.8,354.8z M273.9,354.2l0.7,0.6l88.6-202.2h-28.7
	l-59.7,134.8L273.9,354.2z M266.1,159c18.6,3.2,33.6,11.9,46.6,24.2l15.9-36.6c-17.2-16.5-37.5-27.9-62.5-31.5V69.3H292L249.6,27
	l-42.3,42.3h25.9v45.8c-24.9,3.5-45.2,15.1-62.4,31.5l16.2,36.6c12.7-12.2,27.7-20.9,46.2-24.1v198.3l-25.9,25.8V463l42.3-42.3
	L292,463v-79.8l-25.9-25.8V159z M99,266.9c-25.6,57.5-50,112-93.3,112v5.1v5.1c69.8,0,99.1-60.6,127.5-119
	c8.2-16.9,16.2-33.4,25.1-48.5l-16.9-38.4C124.9,208.8,111.6,238.6,99,266.9z M493.8,381.4v-2.6c-43.2,0-67.6-54.3-93.3-112
	c-12.6-28.3-25.9-58.1-42.4-83.7l-16.8,38.3c8.9,15.1,16.9,31.6,25.1,48.5c28.3,58.6,57.7,119,127.5,119v-2.6L493.8,381.4z"/>
<g>
	<polygon class="st4" points="249.6,28 291,69.3 292,69.3 249.6,27 207.4,69.3 208.4,69.3 	"/>
	<path class="st4" d="M266.1,116.1c24.8,3.6,45.1,14.9,62.2,31.2l0.3-0.7c-17.2-16.5-37.5-27.9-62.5-31.5V116.1z"/>
	<polygon class="st4" points="273.9,354.2 273.9,354.2 274.7,288.4 334.4,153.6 362.7,153.6 363.1,152.6 334.4,152.6 274.7,287.4 	
		"/>
	<path class="st4" d="M341.4,221.3c0.1,0.1,0.2,0.3,0.2,0.4l16.5-37.7c16.5,25.6,29.8,55.4,42.4,83.7c25.6,57.7,50,112,93.3,112v-1
		c-43.2,0-67.6-54.3-93.3-112c-12.6-28.3-25.9-58.1-42.4-83.7L341.4,221.3z"/>
	<polygon class="st4" points="207.4,384.2 233.3,358.4 233.3,357.4 207.4,383.2 	"/>
	<polygon class="st4" points="493.8,381.4 493.8,382.4 494,387.2 494,386.2 	"/>
	<polygon class="st4" points="266.1,358.4 292,384.2 292,383.2 266.1,357.4 	"/>
	<path class="st4" d="M233.3,116.1v-1c-24.9,3.5-45.2,15.1-62.4,31.5l0.3,0.7C188.3,131.1,208.5,119.6,233.3,116.1z"/>
	<path class="st4" d="M99,266.9c-25.6,57.5-50,112-93.3,112v1c43.2,0,67.6-54.5,93.3-112c12.6-28.3,25.9-58.1,42.4-83.7L158,222
		c0.1-0.1,0.2-0.3,0.2-0.4l-16.9-38.4C124.9,208.8,111.6,238.6,99,266.9z"/>
	<polygon class="st4" points="164.9,153.6 224.7,288.4 225.5,354.2 225.5,354.2 224.7,287.4 164.9,152.6 136.3,152.6 136.7,153.6 	
		"/>
</g>
</svg>
