<?xml version="1.0" encoding="utf-8"?>
<!-- Generator: Adobe Illustrator 21.1.0, SVG Export Plug-In . SVG Version: 6.00 Build 0)  -->
<svg version="1.1" id="Layer_1" xmlns="http://www.w3.org/2000/svg" xmlns:xlink="http://www.w3.org/1999/xlink" x="0px" y="0px"
	 viewBox="0 0 500 500" style="enable-background:new 0 0 500 500;" xml:space="preserve">
<style type="text/css">
	.st0{fill:#9500FF;}
	.st1{fill:#FFCA05;}
	.st2{fill:#FFFFFF;}
</style>
<g>
	<g>
		<rect x="193.8" y="392.4" class="st0" width="12.6" height="57"/>
	</g>
	<g>
		<polygon class="st0" points="160.1,440.7 141.3,392.4 132.9,392.4 155.8,449.4 164,449.4 187.1,392.4 178.9,392.4 		"/>
	</g>
	<g>
		<path class="st0" d="M115.2,395.7c-4.6-2.6-9.6-3.8-15.1-3.8s-10.6,1.3-15.2,3.8c-4.6,2.6-8.2,6-10.8,10.5c-2.7,4.4-4,9.3-4,14.6
			c0,5.3,1.3,10.2,4,14.7s6.3,8,10.9,10.6s9.6,3.9,15.1,3.9s10.5-1.3,15.1-3.9s8.2-6.1,10.9-10.6s4-9.4,4-14.7
			c0-5.3-1.3-10.2-4-14.6C123.5,401.8,119.8,398.3,115.2,395.7z M119.1,431.9c-2,3.4-4.6,6-8,8c-3.3,2-7,3-11,3s-7.6-1-11-3
			s-6.1-4.7-8.1-8c-2-3.4-3-7.1-3-11.1s1-7.7,3-11s4.7-6,8.1-7.9c3.4-2,7.1-2.9,11-2.9c4,0,7.6,1,11,2.9c3.3,2,6,4.6,8,7.9s3,7,3,11
			C122.1,424.9,121.1,428.5,119.1,431.9z"/>
	</g>
	<g>
		<polygon class="st0" points="65.9,392.4 56.6,392.4 27.4,424.4 27.4,392.4 19.6,392.4 19.6,449.4 27.4,449.4 27.4,434.5 
			37.9,423.1 57.9,449.4 67.4,449.4 43.4,417 		"/>
	</g>
	<g>
		<polygon class="st0" points="450.1,403.3 463,403.3 463,403.3 480.4,403.3 480.4,392.4 432.8,392.4 432.8,403.3 		"/>
	</g>
	<g>
		<rect x="212.8" y="415.5" class="st0" width="21.3" height="10.7"/>
	</g>
	<g>
		<rect x="212.8" y="392.4" class="st0" width="24.4" height="10.7"/>
	</g>
	<g>
		<polygon class="st0" points="374.2,392.4 374.2,449.4 386.5,449.4 386.5,393.1 385.9,392.4 		"/>
	</g>
	<g>
		<rect x="212.8" y="438.8" class="st0" width="25.3" height="10.7"/>
	</g>
	<g>
		<rect x="450.1" y="409.8" class="st0" width="12.9" height="39.6"/>
	</g>
	<g>
		<polygon class="st0" points="413.6,429.2 392.9,401.7 392.9,421.3 414.1,449.4 425.9,449.4 425.9,392.4 413.6,392.4 		"/>
	</g>
	<g>
		<polygon class="st0" points="248.2,392.4 248.2,449.4 260.3,449.4 260.3,392.9 259.9,392.4 		"/>
	</g>
	<g>
		<polygon class="st0" points="330.6,392.4 305.9,449.4 319.2,449.4 323.6,438.3 343.2,438.3 339,428 327.9,428 336.9,405.8 
			344,423.3 344.1,423.3 354.6,449.4 368.3,449.4 343.9,392.4 		"/>
	</g>
	<g>
		<polygon class="st0" points="287.6,429.2 266.8,401.5 266.8,421.1 288.1,449.4 299.8,449.4 299.8,392.4 287.6,392.4 		"/>
	</g>
</g>
<g>
	<g>
		<polygon class="st0" points="185.3,36.8 162.8,36.8 199.6,0 236.5,36.8 213.9,36.8 213.9,287.9 236.5,310.4 236.5,380 
			199.6,343.1 162.8,380 162.8,310.4 185.3,287.9 		"/>
	</g>
	<g>
		<g>
			<path class="st1" d="M212.2,162.5l-26.4,11.7v27.6l58.7-24.5l-16.9-21.7L212.2,162.5z M281.7,161.7l66.6-31V98.8l-84.2,40.2
				l-41.3-53.2V132l128.7,166.5h36.3L281.7,161.7z"/>
		</g>
	</g>
	<g>
		<path class="st1" d="M250,35.5c79.6,0,144,64.5,144,144c0,29.9-9.1,57.6-24.7,80.6l15.6,20.1c21-28.1,33.5-63,33.5-100.8
			C418.5,86.6,342.9,11,250,11c-8.5,0-16.8,0.6-24.9,1.9l22.6,22.6C248.5,35.5,249.2,35.5,250,35.5z"/>
		<path class="st1" d="M81.5,179.5c0,57.2,28.7,107.8,72.4,138.3v-11.1l11-11c-35.7-26.2-59-68.5-59-116.2
			c0-52.7,28.3-98.7,70.5-123.8v-10h-28.7C107.5,76.5,81.5,125,81.5,179.5z"/>
		<path class="st1" d="M347.3,307.4l-10.2-13.2c-24.2,18.4-54.3,29.3-87.1,29.3c-1.6,0-3.1-0.1-4.6-0.1v24.4c1.5,0,3.1,0.1,4.6,0.1
			c41.8,0,80-15.3,109.5-40.6H347.3z"/>
	</g>
</g>
<g>
	<path class="st2" d="M49,462.7c-2.2-0.9-4.5-1.4-6.8-1.4c-3.2,0-6.2,0.8-8.9,2.3c-2.7,1.6-4.8,3.7-6.4,6.4s-2.4,5.7-2.4,8.9
		s0.8,6.1,2.4,8.8c1.6,2.7,3.7,4.8,6.4,6.4s5.7,2.4,8.9,2.4c2.3,0,4.6-0.4,6.8-1.3c2.2-0.9,4.2-2.1,5.9-3.8l2.5,2.7
		c-2.1,1.9-4.5,3.4-7.1,4.6c-2.7,1.1-5.4,1.7-8.2,1.7c-4,0-7.6-1-10.9-2.9c-3.3-1.9-6-4.5-7.9-7.8c-1.9-3.3-2.9-6.9-2.9-10.7
		s1-7.4,2.9-10.7c2-3.2,4.6-5.8,8-7.7c3.3-1.9,7-2.8,11-2.8c2.8,0,5.6,0.5,8.2,1.6c2.6,1.1,5,2.5,7,4.4l-2.5,2.9
		C53.1,464.9,51.2,463.6,49,462.7z"/>
	<path class="st2" d="M88.6,458h4.1v38.2h18.5v3.7H88.6V458z"/>
	<path class="st2" d="M170.5,460.5c3.3,1.9,6,4.5,8,7.7s2.9,6.8,2.9,10.7s-1,7.5-2.9,10.7c-2,3.3-4.6,5.9-8,7.8
		c-3.3,1.9-7,2.9-11,2.9c-4,0-7.7-1-11-2.9c-3.3-1.9-6-4.5-8-7.8c-2-3.3-2.9-6.9-2.9-10.7s1-7.4,2.9-10.7c2-3.2,4.6-5.8,8-7.7
		c3.3-1.9,7-2.8,11-2.8C163.5,457.6,167.2,458.6,170.5,460.5z M150.7,463.7c-2.7,1.6-4.9,3.7-6.5,6.4c-1.6,2.7-2.4,5.6-2.4,8.8
		s0.8,6.2,2.4,8.9c1.6,2.7,3.8,4.9,6.5,6.4c2.7,1.6,5.7,2.4,8.9,2.4c3.2,0,6.1-0.8,8.8-2.4c2.7-1.6,4.9-3.7,6.5-6.4
		c1.6-2.7,2.4-5.7,2.4-8.9s-0.8-6.1-2.4-8.8c-1.6-2.7-3.8-4.8-6.5-6.4c-2.7-1.6-5.6-2.3-8.8-2.3
		C156.3,461.4,153.4,462.1,150.7,463.7z"/>
	<path class="st2" d="M206.4,457.9h31.9v3.8h-13.9v38.2h-4.1v-38.2h-13.9V457.9z"/>
	<path class="st2" d="M267.8,458h4.1v19.2h26.2V458h4.1v41.9h-4.1v-19h-26.2v19h-4.1V458z"/>
	<path class="st2" d="M337.7,458h4.1v41.9h-4.1V458z"/>
	<path class="st2" d="M407.8,458h4.1v41.9h-4.4l-26-35.5v35.5h-4.1V458h4.4l26,35.5V458z"/>
	<path class="st2" d="M476.8,479.4h3.7v15.4c-2,1.7-4.4,3.1-7.1,4c-2.7,1-5.5,1.5-8.3,1.5c-4,0-7.6-1-11-2.9c-3.3-1.9-6-4.5-8-7.8
		c-2-3.3-2.9-6.9-2.9-10.7s1-7.4,2.9-10.7c2-3.2,4.6-5.8,8-7.7c3.4-1.9,7.1-2.8,11.1-2.8c2.8,0,5.6,0.5,8.3,1.5c2.7,1,5,2.4,7,4.2
		l-2.4,2.9c-1.7-1.6-3.7-2.8-5.9-3.7c-2.2-0.9-4.6-1.3-7-1.3c-3.2,0-6.2,0.8-8.9,2.4c-2.7,1.6-4.9,3.7-6.5,6.4
		c-1.6,2.7-2.4,5.6-2.4,8.8c0,3.2,0.8,6.2,2.4,8.9c1.6,2.7,3.8,4.8,6.5,6.4c2.7,1.6,5.7,2.4,9,2.4c2,0,4-0.3,6-1
		c2-0.7,3.8-1.6,5.5-2.8V479.4z"/>
</g>
</svg>
