<?xml version="1.0" encoding="utf-8"?>
<!-- Generator: Adobe Illustrator 21.1.0, SVG Export Plug-In . SVG Version: 6.00 Build 0)  -->
<svg version="1.1" id="Layer_1" xmlns="http://www.w3.org/2000/svg" xmlns:xlink="http://www.w3.org/1999/xlink" x="0px" y="0px"
	 viewBox="0 0 300 300" style="enable-background:new 0 0 300 300;" xml:space="preserve">
<style type="text/css">
	.st0{fill:#9500FF;}
	.st1{fill:#4164AE;}
	.st2{fill:#FFCB05;}
	.st3{fill:#F89A21;}
	.st4{fill:#31BFCB;}
	.st5{fill:#FFCA05;}
	.st6{fill:#8DC646;}
	.st7{fill:#70BE45;}
	.st8{fill:#787878;}
	.st9{fill:#FFCB04;}
	.st10{fill:#7752A0;}
	.st11{fill:#34BFCB;}
	.st12{fill:#6DBD45;}
	.st13{fill:#F79923;}
	.st14{fill:#EB223B;}
</style>
<g>
	<g>
		<path class="st2" d="M80.6,109.2c-6.5-4.5-7-11.5-5.7-14.8c0.6-1.5,11-2.8,15.1-2.1c2.7-1.7,6.2-3.7,10-5.7
			c-9.7-3.9-27.6-0.8-31.1,3.9c-3.5,4.7-1.5,23.1,10.1,28.2C79.5,114.9,80,111.8,80.6,109.2z"/>
	</g>
	<g>
		<path class="st2" d="M125.3,183.3l-6-4.1c-1.1-0.7-0.6-2.4,0.7-2.4h12.2c0-29.3,0-71.9,0-79.3c-6.4-0.5-15.9-14.1-24.5-10.4
			c-9.4,4-17.9,9-20.4,11.2c-4.9,4.2-8.4,46.4-6.3,50.6c2.1,4.2,14,21.1,14,21.1s7.3,31,12.6,33.7c9,4.5,17.6,2.8,24.6-2.8
			c0-3,0-7.5,0-12.9L125.3,183.3z M105.6,145.3c-6.8-2.3-7.9-8.2-10.7-9.2c-3.8-1.3,1.1-5.1,14.1-0.7c13,4.4,15.4,10.7,10.7,9.2
			C116.3,143.4,112.4,147.6,105.6,145.3z"/>
	</g>
	<g>
		<path class="st1" d="M238.6,124.2c-2.6-1.3-19.8-1.3-28.8,1.3c-5.1-12.8-16.6-30.1-42.6-27.9c0,7.2,0,57.3,0,86.9
			c1.9-1.3,8.2-5.6,11-5.6c1.4,0,2.6,1.9,1.3,3c-1.4,1-3.1,0.1-3.4-0.6c-2.8-0.3-8.8,7.1-8.8,7.1c0,0-0.1,0.1-0.1,0.2
			c0,6.3,0,11.3,0,14.4c0,7,25.3,10.2,28.5-12.8c3.2-23,14.1-24.3,16.6-47.4c0.4,0.1,1.9-7-0.6-12.8c3.3-4,13.3-3.2,19.8-3.2
			c2.6,0-4.5,10.2-14.7,10.2c-0.9,1.2-1.3,5.6-1.3,6.4C227.3,142,240.8,125.3,238.6,124.2z M193.5,151.7c-5.1,1-8-2.7-10.7-1.8
			c-3.7,1.3,0.6-7.7,8.7-9c8.1-1.4,11.2,2.3,11.2,2.3S198.6,150.6,193.5,151.7z"/>
	</g>
	<g>
		<polygon class="st2" points="159.3,51.1 174,51.1 150,27.1 126,51.1 140.7,51.1 140.7,214.9 126,229.6 126,275 150,251 174,275 
			174,229.6 159.3,214.9 		"/>
	</g>
	<g>
		<g>
			<path class="st1" d="M120.1,259l-14.6-10c-0.6-2.4-2.3-9.7-2.3-9.7s-4.6,2.5-8.1,2.5l-22.4-15.3c-1-2.8-0.4-11.7-0.4-11.7
				s-7.8,3.2-10.8,4.1L41,205v-25c2.2-1.6,8.6-5.5,11-6.2c-2.4-0.8-8.8-4.7-11-6.2v-32.7c1.7-1.2,7.3-4.8,9-5.5
				c-1.7-0.7-7.3-4.3-9-5.5V88.3l11.3-6l9.5,5l-0.4-9.9l21.1-11.3c0,0,0,0,0,0l9.4,1.9l2.7-8.4l31.6-16.9L143.9,25L37.5,81.9
				l-3.9,2.1v4.4V205v3.9l3.2,2.2l83.3,56.8V259z"/>
		</g>
		<g>
			<path class="st2" d="M262.5,81.9L156.1,25l17.8,17.8l29.3,15.7c-0.5-0.2-0.7-0.3-0.7-0.3c2.9,2.2,3.2,6.1,2.2,9.5
				c3.6-2.9,7.9-2.2,12.9-1.5L237,76.5c1.6,2.3,2.6,5.9,1.9,10.8c3.6-2.9,11.3-3.2,13.6-2.4l6.5,3.5v38.2c-1.5,1.1-2.6,2.3-7,3.1
				c4.4,0,5.5,1.3,7,2.3v38.4c-2,1.5-4.3,2.6-6.8,3.4c2.5,0.8,4.7,1.9,6.8,3.4V205L238.4,219c-3.1,1-6-0.5-9.7-2.7
				c1.2,2.9,0.4,7.7-1.6,10.4L179.9,259v8.8l83.3-56.8l3.2-2.2V205V88.3v-4.4L262.5,81.9z"/>
		</g>
	</g>
</g>
</svg>
