<?xml version="1.0" encoding="utf-8"?>
<!-- Generator: Adobe Illustrator 21.1.0, SVG Export Plug-In . SVG Version: 6.00 Build 0)  -->
<svg version="1.1" id="Layer_1" xmlns="http://www.w3.org/2000/svg" xmlns:xlink="http://www.w3.org/1999/xlink" x="0px" y="0px"
	 viewBox="0 0 300 300" style="enable-background:new 0 0 300 300;" xml:space="preserve">
<style type="text/css">
	.st0{fill:#9500FF;}
	.st1{fill:#4164AE;}
	.st2{fill:#FFCB05;}
	.st3{fill:#F89A21;}
	.st4{fill:#31BFCB;}
	.st5{fill:#FFCA05;}
	.st6{fill:#8DC646;}
	.st7{fill:#70BE45;}
	.st8{fill:#787878;}
	.st9{fill:#FFCB04;}
	.st10{fill:#7752A0;}
	.st11{fill:#34BFCB;}
	.st12{fill:#6DBD45;}
	.st13{fill:#F79923;}
	.st14{fill:#EB223B;}
</style>
<g>
	<rect x="169.9" y="140.3" class="st0" width="105.1" height="15"/>
	<rect x="169.9" y="170.3" class="st0" width="105.1" height="15"/>
	<rect x="169.9" y="200.2" class="st0" width="105.1" height="15"/>
	<rect x="25" y="140.3" class="st0" width="105.1" height="15"/>
	<rect x="25" y="170.3" class="st0" width="105.1" height="15"/>
	<rect x="25" y="200.2" class="st0" width="105.1" height="15"/>
	<path class="st0" d="M207.5,79.8c-1.2,0-2.4,0.1-3.5,0.1c-1.5-14.2-6.9-26.2-16.1-35.1c-9.6-9.4-22.6-14.5-36.4-14.5
		c-13.9,0-26.8,5.2-36.4,14.5c-5.8,5.6-10.1,12.5-12.8,20.4c-7.5-0.2-15,1.3-21.9,4.5c-20.2,9.2-31.7,30.2-31.7,57.4h9.9
		c0-23.2,9.5-40.8,26-48.4c10.5-4.8,22.4-4.8,32.9-0.3l6-8.1c-3.7-1.8-7.5-3.1-11.5-3.9c7.3-18.2,23.9-26.7,39.7-26.7
		c11.4,0,22,4.2,29.9,11.9c7.7,7.5,12.2,17.8,13.4,30.1c-5.3,1.6-10.3,4.3-14.6,7.8l8.6,5.3c5.4-3.6,11.9-5.6,18.8-5.6
		c16.4,0,34.1,11.9,34.1,38h9.4C251.1,96.1,229.2,79.8,207.5,79.8z"/>
	<polygon class="st1" points="158,85.3 170.6,85.3 150,64.6 129.3,85.3 141.9,85.3 141.9,218 129.3,230.6 129.3,269.7 150,249 
		170.6,269.7 170.6,230.6 158,218 	"/>
</g>
</svg>
