<?xml version="1.0" encoding="utf-8"?>
<!-- Generator: Adobe Illustrator 21.1.0, SVG Export Plug-In . SVG Version: 6.00 Build 0)  -->
<svg version="1.1" id="Layer_1" xmlns="http://www.w3.org/2000/svg" xmlns:xlink="http://www.w3.org/1999/xlink" x="0px" y="0px"
	 viewBox="0 0 300 300" style="enable-background:new 0 0 300 300;" xml:space="preserve">
<style type="text/css">
	.st0{fill:#9500FF;}
	.st1{fill:#4164AE;}
	.st2{fill:#FFCB05;}
	.st3{fill:#F89A21;}
	.st4{fill:#31BFCB;}
	.st5{fill:#FFCA05;}
	.st6{fill:#8DC646;}
	.st7{fill:#70BE45;}
	.st8{fill:#787878;}
	.st9{fill:#FFCB04;}
	.st10{fill:#7752A0;}
	.st11{fill:#34BFCB;}
	.st12{fill:#6DBD45;}
	.st13{fill:#F79923;}
	.st14{fill:#EB223B;}
</style>
<g>
	<g>
		<polygon class="st6" points="137.3,205.9 136.8,171.7 106.3,102.6 91.6,102.6 137,206.2 		"/>
		<polygon class="st6" points="162,205.9 162.5,171.7 193,102.6 207.7,102.6 162.4,206.2 		"/>
	</g>
	<g>
		<polygon class="st4" points="158.1,60 171.3,60 149.7,38.4 128,60 141.2,60 141.2,207.5 128,220.8 128,261.6 149.7,240 
			171.3,261.6 171.3,220.8 158.1,207.5 		"/>
	</g>
	<g>
		<path class="st6" d="M94.2,118.4c-8.5,13.1-15.3,28.4-21.7,42.8c-13.2,29.5-25.6,57.3-47.8,57.3v2.6v2.6c35.8,0,50.8-31,65.3-61
			c4.2-8.6,8.3-17.1,12.8-24.8L94.2,118.4z"/>
		<path class="st6" d="M274.7,219.8v-1.3c-22.2,0-34.6-27.8-47.8-57.3c-6.5-14.5-13.3-29.7-21.7-42.8l-8.6,19.6
			c4.5,7.7,8.6,16.2,12.8,24.8c14.5,30,29.5,61,65.3,61v-1.3h0L274.7,219.8L274.7,219.8z"/>
		<path class="st6" d="M190.1,99.6C180,90,167.8,83.6,152.3,83v-0.1h-2.6H147V83c-15.5,0.7-27.7,7-37.8,16.7l8.3,18.7
			c8.4-8,18.6-13.1,32.1-13.1c13.5,0,23.7,5,32.1,13.1L190.1,99.6z"/>
	</g>
</g>
</svg>
