<?xml version="1.0" encoding="utf-8"?>
<!-- Generator: Adobe Illustrator 21.1.0, SVG Export Plug-In . SVG Version: 6.00 Build 0)  -->
<svg version="1.1" id="Layer_1" xmlns="http://www.w3.org/2000/svg" xmlns:xlink="http://www.w3.org/1999/xlink" x="0px" y="0px"
	 viewBox="0 0 300 300" style="enable-background:new 0 0 300 300;" xml:space="preserve">
<style type="text/css">
	.st0{fill:#9500FF;}
	.st1{fill:#4164AE;}
	.st2{fill:#FFCB05;}
	.st3{fill:#F89A21;}
	.st4{fill:#31BFCB;}
	.st5{fill:#FFCA05;}
	.st6{fill:#8DC646;}
	.st7{fill:#70BE45;}
	.st8{fill:#787878;}
	.st9{fill:#FFCB04;}
	.st10{fill:#7752A0;}
	.st11{fill:#34BFCB;}
	.st12{fill:#6DBD45;}
	.st13{fill:#F79923;}
	.st14{fill:#EB223B;}
</style>
<polygon class="st3" points="157.2,71.4 168.8,71.4 149.8,52.4 130.8,71.4 142.4,71.4 142.4,200.7 130.8,212.3 130.8,248.2 
	149.8,229.2 168.8,248.2 168.8,212.3 157.2,200.7 "/>
<g>
	<g>
		<path class="st4" d="M203,123.4c1.4-0.6,2.6-1.2,3.8-1.8c4.1-2,7.3-3.6,14.4-3.6c7.1,0,10.3,1.6,14.4,3.6
			c4.7,2.4,10.6,5.3,21.4,5.3c8.3,0,13.7-1.7,17.9-3.6v-17.3c-1.3,0.6-2.4,1.1-3.5,1.7c-4.1,2-7.3,3.6-14.4,3.6
			c-7.1,0-10.3-1.6-14.4-3.6c-4.7-2.4-10.6-5.3-21.4-5.3c-8.5,0-14,1.8-18.2,3.8V123.4z"/>
		<path class="st4" d="M206.9,157.3c4.1-2,7.3-3.6,14.4-3.6c7.1,0,10.3,1.6,14.4,3.6c4.7,2.4,10.6,5.3,21.4,5.3
			c8.3,0,13.7-1.7,17.9-3.6v-17.3c-1.3,0.6-2.4,1.1-3.5,1.7c-4.1,2-7.3,3.6-14.4,3.6c-7.1,0-10.3-1.6-14.4-3.6
			c-4.7-2.4-10.6-5.3-21.4-5.3c-10.8,0-16.6,2.9-21.4,5.3c-4.1,2-7.3,3.6-14.4,3.6c-2.3,0-4.2-0.2-5.9-0.5v15.8
			c1.8,0.2,3.8,0.3,5.9,0.3C196.3,162.6,202.2,159.6,206.9,157.3z"/>
		<path class="st4" d="M64,157.3c4.1-2,7.3-3.6,14.4-3.6c7.1,0,10.3,1.6,14.4,3.6c4.7,2.4,10.6,5.3,21.4,5.3c2.2,0,4.1-0.1,5.9-0.3
			v-15.8c-1.7,0.3-3.6,0.5-5.9,0.5c-7.1,0-10.3-1.6-14.4-3.6c-4.7-2.4-10.6-5.3-21.4-5.3s-16.6,2.9-21.4,5.3
			c-4.1,2-7.3,3.6-14.4,3.6s-10.3-1.6-14.4-3.6c-1.1-0.5-2.2-1.1-3.5-1.7v17.3c4.2,1.9,9.6,3.6,17.9,3.6
			C53.4,162.6,59.3,159.6,64,157.3z"/>
		<path class="st4" d="M274.8,176.9c-1.7,0.6-3.2,1.2-4.7,1.7c-4.1,1.6-6.7,2.6-13.2,2.6c-6.5,0-9.1-1.1-13.2-2.7
			c-5-2-11.1-4.4-22.5-4.4s-17.6,2.4-22.5,4.4c-4.1,1.6-6.7,2.6-13.2,2.6s-9.1-1.1-13.2-2.7c-5-2-11.1-4.4-22.5-4.4
			s-17.6,2.4-22.5,4.4c-4.1,1.6-6.7,2.7-13.2,2.7s-9.1-1.1-13.2-2.6c-5-2-11.1-4.4-22.5-4.4s-17.6,2.4-22.5,4.4
			c-4.1,1.6-6.7,2.6-13.2,2.6s-9.1-1.1-13.2-2.6c-1.4-0.6-2.9-1.2-4.7-1.7v18.1c4.3,1.4,9.7,2.7,17.9,2.7c11.4,0,17.6-2.4,22.5-4.4
			c4.1-1.6,6.7-2.6,13.2-2.6s9.1,1.1,13.2,2.6c5,2,11.1,4.4,22.5,4.4c11.4,0,17.6-2.4,22.5-4.4c4.1-1.6,6.7-2.6,13.2-2.6
			s9.1,1.1,13.2,2.6c5,2,11.1,4.4,22.5,4.4c11.4,0,17.6-2.4,22.5-4.4c4.1-1.6,6.7-2.6,13.2-2.6s9.1,1.1,13.2,2.6
			c5,2,11.1,4.4,22.5,4.4c8.1,0,13.6-1.2,17.9-2.7V176.9z"/>
		<path class="st4" d="M24.8,123.2c4.2,1.9,9.6,3.6,17.9,3.6c10.8,0,16.6-2.9,21.4-5.3c4.1-2,7.3-3.6,14.4-3.6
			c7.1,0,10.3,1.6,14.4,3.6c1.2,0.6,2.4,1.2,3.8,1.8V106c-4.2-1.9-9.7-3.8-18.2-3.8c-10.8,0-16.6,2.9-21.4,5.3
			c-4.1,2-7.3,3.6-14.4,3.6s-10.3-1.6-14.4-3.6c-1.1-0.5-2.2-1.1-3.5-1.7V123.2z"/>
	</g>
</g>
</svg>
