<?xml version="1.0" encoding="utf-8"?>
<!-- Generator: Adobe Illustrator 21.1.0, SVG Export Plug-In . SVG Version: 6.00 Build 0)  -->
<svg version="1.1" id="Layer_1" xmlns="http://www.w3.org/2000/svg" xmlns:xlink="http://www.w3.org/1999/xlink" x="0px" y="0px"
	 viewBox="0 0 300 300" style="enable-background:new 0 0 300 300;" xml:space="preserve">
<style type="text/css">
	.st0{fill:#9500FF;}
	.st1{fill:#4164AE;}
	.st2{fill:#FFCB05;}
	.st3{fill:#F89A21;}
	.st4{fill:#31BFCB;}
	.st5{fill:#FFCA05;}
	.st6{fill:#8DC646;}
	.st7{fill:#70BE45;}
	.st8{fill:#787878;}
	.st9{fill:#FFCB04;}
	.st10{fill:#7752A0;}
	.st11{fill:#34BFCB;}
	.st12{fill:#6DBD45;}
	.st13{fill:#F79923;}
	.st14{fill:#EB223B;}
</style>
<g>
	<circle cx="150" cy="150" r="113.2"/>
	<path class="st8" d="M150,36.8c62.5,0,113.2,50.7,113.2,113.2S212.5,263.2,150,263.2S36.8,212.5,36.8,150S87.5,36.8,150,36.8
		 M150,25c-16.9,0-33.2,3.3-48.7,9.8c-14.9,6.3-28.3,15.3-39.7,26.8c-11.5,11.5-20.5,24.8-26.8,39.7C28.3,116.8,25,133.1,25,150
		s3.3,33.2,9.8,48.7c6.3,14.9,15.3,28.3,26.8,39.7c11.5,11.5,24.8,20.5,39.7,26.8c15.4,6.5,31.8,9.8,48.7,9.8s33.2-3.3,48.7-9.8
		c14.9-6.3,28.3-15.3,39.7-26.8c11.5-11.5,20.5-24.8,26.8-39.7c6.5-15.4,9.8-31.8,9.8-48.7s-3.3-33.2-9.8-48.7
		c-6.3-14.9-15.3-28.3-26.8-39.7c-11.5-11.5-24.8-20.5-39.7-26.8C183.2,28.3,166.9,25,150,25L150,25z"/>
	<polygon class="st9" points="60.3,158.3 60.3,171.5 38.8,149.9 60.3,128.4 60.3,141.6 207.3,141.6 220.5,128.4 261.2,128.4 
		239.7,149.9 261.2,171.5 220.5,171.5 207.3,158.3 	"/>
	<polygon class="st10" points="60.3,158.3 60.3,171.5 38.8,149.9 60.3,128.4 60.3,141.6 207.3,141.6 220.5,128.4 261.2,128.4 
		239.7,149.9 261.2,171.5 220.5,171.5 207.3,158.3 	"/>
	<polygon class="st1" points="65.6,118.6 59.9,130.5 49.8,101.7 78.6,91.6 72.9,103.5 205.3,167.2 222.9,161.1 259.6,178.8 
		230.8,188.8 240.9,217.6 204.2,199.9 198,182.4 	"/>
	<polygon class="st11" points="87.5,85.1 77.2,93.3 80.6,63 111,66.4 100.6,74.6 192.3,189.5 210.8,191.6 236.2,223.4 205.9,220 
		202.5,250.3 177.1,218.5 179.2,200 	"/>
	<polygon class="st12" points="121.9,64.4 109,67.3 125.2,41.5 151.1,57.7 138.2,60.7 170.9,203.9 186.7,213.9 195.8,253.6 
		170,237.3 153.7,263.2 144.7,223.5 154.6,207.7 	"/>
	<polygon class="st9" points="161.7,60.7 148.9,57.7 174.7,41.5 191,67.3 178.1,64.4 145.4,207.7 155.4,223.5 146.3,263.2 
		130.1,237.3 104.3,253.6 113.3,213.9 129.1,203.9 	"/>
	<polygon class="st13" points="199.3,74.6 189,66.4 219.3,63 222.7,93.3 212.4,85 120.8,200 122.9,218.5 97.6,250.4 94.1,220 
		63.8,223.5 89.2,191.6 107.7,189.5 	"/>
	<polygon class="st14" points="227.1,103.5 221.4,91.6 250.2,101.6 240.1,130.4 234.4,118.6 102,182.4 95.9,200 59.2,217.7 
		69.2,188.9 40.5,178.8 77.1,161.1 94.7,167.3 	"/>
</g>
</svg>
