<?xml version="1.0" standalone="no"?>
<!DOCTYPE svg PUBLIC "-//W3C//DTD SVG 20010904//EN"
 "http://www.w3.org/TR/2001/REC-SVG-20010904/DTD/svg10.dtd">
<svg version="1.0" xmlns="http://www.w3.org/2000/svg"
 width="700.000000pt" height="700.000000pt" viewBox="0 0 700.000000 700.000000"
 preserveAspectRatio="xMidYMid meet">
<metadata>
Created by potrace 1.11, written by Peter Selinger 2001-2013
</metadata>
<g transform="translate(0.000000,700.000000) scale(0.100000,-0.100000)"
fill="#000000" stroke="none">
<path d="M3337 6714 c-524 -80 -923 -398 -1123 -896 l-19 -48 -75 0 c-127 0
-307 -36 -439 -87 -376 -145 -655 -427 -815 -825 -49 -122 -98 -309 -112 -424
-3 -23 -7 -53 -10 -65 -3 -13 -7 -88 -10 -167 -4 -111 -2 -142 7 -136 18 11
61 12 87 2 14 -5 21 -4 17 1 -7 12 45 9 64 -3 10 -6 12 -5 7 2 -4 7 -1 12 9
12 10 0 13 -5 9 -12 -6 -10 -4 -10 7 -2 8 6 22 10 32 9 24 -4 25 0 31 128 3
60 8 118 11 130 2 12 6 41 9 64 6 47 9 62 31 157 9 38 21 81 27 95 5 14 11 33
13 42 6 30 79 194 92 207 7 7 16 24 19 38 3 13 10 24 15 24 5 0 9 6 9 13 0 7
11 24 25 39 14 15 25 31 25 36 0 5 43 53 96 108 52 54 92 93 88 85 -4 -8 11 3
32 25 22 21 53 46 69 54 17 8 33 19 37 25 4 5 8 6 8 2 0 -5 7 -1 16 7 8 9 20
14 25 11 5 -4 9 -1 9 4 0 11 64 41 93 44 9 1 17 4 17 8 0 3 11 11 25 17 19 9
25 9 25 -1 0 -8 3 -8 9 2 5 8 22 14 39 15 17 0 28 4 25 9 -4 7 11 9 65 10 12
1 22 4 22 7 0 3 17 7 37 8 21 2 39 5 41 7 3 2 14 0 25 -6 14 -8 18 -8 12 0 -5
9 25 11 115 7 66 -3 126 -9 133 -13 7 -4 23 -8 37 -9 14 -1 35 -2 48 -3 13 0
21 -5 18 -9 -3 -5 5 -8 17 -7 12 1 31 -5 41 -14 12 -9 16 -11 12 -3 -6 10 -4
11 10 4 87 -42 75 -44 117 12 20 27 37 54 37 58 0 5 5 6 10 3 6 -3 10 -1 10 4
0 6 16 33 35 60 19 26 35 51 35 53 0 3 -15 11 -32 18 -18 7 -51 21 -73 31 -22
9 -77 27 -121 39 l-82 23 26 56 c58 128 131 231 231 331 71 71 199 173 187
149 -5 -10 -4 -9 6 2 17 21 125 79 132 72 3 -4 6 -1 6 6 0 7 5 9 10 6 6 -3 10
-1 10 4 0 6 3 11 8 10 4 -1 18 2 32 7 14 4 27 6 29 5 2 -2 7 3 11 9 4 7 21 13
38 13 17 1 28 5 26 9 -4 7 44 13 69 9 4 0 7 3 7 8 0 5 10 9 23 10 54 2 98 8
104 14 12 13 35 8 27 -5 -6 -10 -5 -10 7 -2 18 15 149 15 168 0 11 -8 13 -8 7
2 -6 9 2 11 31 7 21 -3 56 -8 78 -11 22 -2 47 -7 55 -11 15 -6 53 -13 78 -15
6 -1 12 -4 12 -8 0 -3 9 -7 20 -8 43 -4 50 -6 50 -14 0 -4 3 -7 8 -6 10 3 82
-25 82 -32 0 -3 10 -7 22 -7 13 -1 24 -7 26 -13 2 -5 10 -10 18 -10 8 0 14 -4
14 -10 0 -6 3 -9 8 -8 12 3 62 -24 62 -34 0 -4 6 -8 13 -8 6 0 24 -10 39 -23
14 -12 38 -30 52 -41 14 -10 23 -23 19 -29 -3 -6 -1 -7 5 -3 6 3 14 0 19 -7 4
-8 19 -20 31 -26 13 -7 22 -15 19 -17 -2 -3 12 -22 32 -42 37 -38 44 -46 106
-139 89 -135 168 -351 190 -523 4 -25 8 -57 10 -71 4 -23 0 -27 -38 -39 -76
-24 -221 -99 -290 -150 -56 -42 -65 -53 -55 -64 7 -8 15 -14 18 -13 9 2 55
-26 73 -45 10 -10 22 -16 26 -13 5 2 19 -5 33 -18 27 -25 30 -27 58 -34 11 -3
17 -10 14 -17 -3 -6 0 -4 8 4 19 22 65 50 83 50 8 0 15 5 15 11 0 6 7 8 16 5
8 -3 12 -2 9 4 -6 9 10 14 42 13 7 -1 10 4 7 9 -3 5 0 8 7 7 8 -2 29 5 48 15
22 12 31 13 25 4 -6 -10 -4 -10 9 1 9 7 17 10 17 6 0 -4 6 -2 14 4 8 7 47 14
88 16 40 2 73 5 73 6 0 1 30 2 67 3 36 1 65 -1 63 -4 -2 -3 16 -5 38 -6 23 0
56 -4 72 -8 17 -4 38 -8 48 -9 9 -1 17 -5 17 -9 0 -4 3 -7 8 -7 22 4 42 -2 37
-11 -3 -5 0 -7 8 -4 8 3 31 -2 51 -10 20 -8 39 -15 43 -15 3 1 9 -3 12 -8 3
-4 28 -19 55 -33 26 -14 50 -31 53 -37 3 -7 9 -11 13 -8 5 3 13 -3 19 -12 6
-10 11 -14 11 -9 0 5 14 -5 30 -23 17 -17 33 -31 36 -31 8 0 44 -40 82 -90 15
-19 29 -37 32 -40 14 -12 69 -112 97 -176 51 -115 87 -277 92 -410 1 -37 4
-71 6 -74 3 -4 220 -6 248 -1 9 1 2 155 -8 216 -3 16 -7 44 -9 60 -13 106 -66
266 -128 385 -162 313 -441 529 -783 604 -113 24 -142 27 -250 27 l-102 -1
-12 83 c-77 550 -412 989 -899 1178 -92 35 -202 64 -303 80 -107 17 -330 18
-432 3z"/>
<path d="M3224 5510 c-153 -154 -281 -283 -284 -287 -3 -3 7 -3 23 -1 16 3 27
1 27 -6 0 -6 5 -4 10 4 5 8 10 10 10 4 0 -11 48 -12 66 -2 5 4 16 3 24 -2 9
-5 19 -5 26 1 8 6 14 6 18 1 3 -6 21 -7 41 -2 19 4 37 4 40 0 2 -4 16 -5 30
-2 17 3 25 0 26 -9 1 -18 1 -3579 0 -3601 -1 -9 -77 -93 -171 -187 -93 -93
-170 -174 -171 -178 -5 -35 -3 -1056 2 -1059 5 -3 24 13 56 48 6 7 41 42 77
77 36 35 66 66 67 70 1 3 36 38 79 76 43 39 78 73 79 76 1 7 122 129 128 129
2 0 19 18 39 39 l35 40 185 -184 c101 -101 184 -188 184 -194 0 -6 4 -10 8 -8
11 3 162 -149 156 -157 -2 -3 -1 -4 3 -1 3 3 12 0 20 -6 11 -10 13 77 13 523
l0 534 -173 173 -174 172 0 1815 c0 1387 3 1814 12 1810 7 -2 18 0 25 4 8 5
18 6 23 3 14 -9 107 -9 107 0 0 4 7 4 17 -1 9 -6 29 -6 45 -2 15 5 28 6 28 2
0 -6 56 -7 70 -2 3 1 10 2 15 1 6 -1 -118 126 -275 283 -157 157 -285 286
-286 286 0 0 -126 -126 -280 -280z"/>
<path d="M80 3512 l0 -207 100 0 c61 0 100 -4 100 -10 0 -6 3 -6 8 0 9 14 55
17 47 4 -4 -5 -1 -9 4 -9 6 0 11 4 11 9 0 5 38 8 85 7 49 0 85 -5 85 -11 0 -6
3 -6 8 1 9 13 224 13 234 -1 5 -6 8 -6 8 1 0 6 11 12 25 12 13 0 22 -4 19 -9
-3 -5 0 -9 5 -9 6 0 11 4 11 9 0 5 38 8 85 7 49 0 85 -5 85 -11 0 -6 3 -6 8 0
9 14 224 14 234 0 5 -7 8 -6 8 1 0 14 70 13 70 -1 0 -6 3 -6 8 0 9 14 224 14
234 0 5 -7 8 -6 8 1 0 6 11 12 25 12 13 0 22 -4 19 -9 -3 -5 0 -9 5 -9 6 0 11
4 11 9 0 5 38 8 85 7 49 0 85 -5 85 -11 0 -6 3 -6 8 0 9 14 224 14 234 0 5 -7
8 -6 8 1 0 6 13 11 30 11 16 0 27 -5 23 -10 -4 -6 -1 -7 8 -1 19 13 169 12
169 -1 0 -6 3 -6 8 0 9 14 224 14 234 0 5 -7 8 -7 8 0 0 7 74 10 213 10 l212
0 2 208 1 207 -1439 0 -1439 0 0 -208z"/>
<path d="M4050 3512 l0 -208 119 1 c75 1 118 -2 114 -8 -4 -6 -1 -7 8 -1 17
10 90 14 84 4 -2 -3 2 -7 10 -7 8 0 12 4 10 8 -7 11 119 5 127 -6 5 -7 8 -7 8
0 0 12 228 14 247 2 6 -4 15 -2 19 4 4 8 9 7 15 -2 6 -10 9 -10 9 -2 0 15 70
13 70 -2 0 -5 4 -5 8 2 9 14 94 12 104 -2 5 -7 8 -7 8 0 0 12 228 14 247 2 6
-4 15 -2 19 4 4 8 9 7 15 -2 6 -10 9 -10 9 -2 0 15 70 13 70 -2 0 -5 4 -5 8 2
9 14 94 12 104 -2 5 -7 8 -7 8 0 0 12 228 14 247 2 6 -4 15 -2 19 4 4 8 9 7
15 -2 6 -10 9 -10 9 -2 0 15 70 13 70 -2 0 -5 4 -5 8 2 9 14 94 12 104 -2 5
-7 8 -7 8 0 0 12 228 14 247 2 6 -4 15 -2 19 4 4 8 9 7 15 -2 6 -10 9 -10 9
-2 0 15 70 13 70 -2 0 -6 3 -6 8 0 4 7 107 11 297 10 l290 0 0 205 0 205
-1437 3 -1438 2 0 -208z"/>
<path d="M80 2693 l0 -208 58 0 c31 1 63 -4 71 -10 11 -7 13 -7 8 1 -8 13 131
13 152 -1 9 -5 12 -4 8 2 -8 12 132 11 152 -2 9 -5 12 -4 8 1 -3 6 29 10 79
10 52 0 84 -4 84 -11 0 -5 4 -4 9 4 7 12 13 12 24 3 7 -7 16 -9 19 -6 3 2 18
7 33 10 19 3 24 1 19 -7 -5 -8 -3 -9 7 -4 21 14 129 14 129 1 0 -6 4 -5 9 3 7
12 13 12 24 3 7 -7 16 -9 19 -6 3 2 18 7 33 10 19 3 24 1 19 -7 -5 -8 -3 -9 7
-4 21 14 129 14 129 1 0 -6 4 -5 9 3 7 12 13 12 24 3 7 -7 16 -9 19 -6 3 2 18
7 33 10 19 3 24 1 19 -7 -5 -8 -3 -9 7 -4 21 14 129 14 129 1 0 -6 4 -5 9 3 7
12 13 12 24 3 7 -7 16 -9 19 -6 3 2 18 7 33 10 19 3 24 1 19 -7 -5 -8 -3 -9 7
-4 21 14 129 14 129 1 0 -6 4 -5 9 3 7 12 13 12 24 3 7 -7 16 -9 19 -6 3 2 18
7 33 10 19 3 24 1 19 -7 -5 -8 -3 -9 7 -4 21 14 129 14 129 1 0 -7 3 -7 8 -1
10 14 84 16 75 2 -4 -6 -1 -7 7 -2 20 12 160 14 153 2 -4 -6 -1 -7 7 -2 20 12
160 14 153 2 -4 -6 -1 -7 7 -2 20 12 160 14 153 2 -4 -6 -1 -7 7 -2 21 13 150
14 150 1 0 -6 4 -5 9 3 7 12 13 12 24 3 7 -7 16 -9 19 -6 3 2 18 7 33 10 19 3
24 1 19 -7 -5 -8 -3 -9 7 -4 21 14 129 14 129 1 0 -8 2 -8 8 0 8 13 50 13 71
0 10 -6 12 -5 7 2 -4 7 -3 12 3 12 7 0 10 68 8 203 l-2 202 -1437 3 -1438 2 0
-207z"/>
<path d="M4052 2688 c3 -184 5 -212 18 -209 35 9 159 7 153 -2 -4 -6 -1 -7 7
-2 20 12 160 14 153 2 -4 -6 -1 -7 7 -2 20 13 150 13 150 0 0 -5 4 -4 9 4 8
13 12 13 27 0 10 -8 15 -9 11 -3 -4 7 6 11 28 11 20 0 32 -4 28 -10 -4 -6 -1
-7 8 -1 20 12 129 12 129 -1 0 -5 4 -4 9 4 8 13 12 13 27 0 10 -8 15 -9 11 -3
-4 7 6 11 28 11 20 0 32 -4 28 -10 -4 -6 -1 -7 8 -1 20 12 129 12 129 -1 0 -5
4 -4 9 4 8 13 12 13 27 0 10 -8 15 -9 11 -3 -4 7 6 11 28 11 20 0 32 -4 28
-10 -4 -6 -1 -7 8 -1 20 12 122 12 131 -1 5 -6 8 -5 8 3 0 6 5 12 11 12 5 0 7
-5 3 -12 -5 -7 -3 -8 7 -2 24 14 51 16 43 2 -6 -10 -4 -11 7 0 16 15 33 16 23
0 -5 -7 -3 -8 7 -2 20 12 122 12 131 -1 5 -6 8 -5 8 3 0 6 5 12 11 12 5 0 7
-5 3 -12 -5 -7 -3 -8 7 -2 24 14 51 16 43 2 -6 -10 -4 -11 7 0 16 15 33 16 23
0 -5 -7 -3 -8 7 -2 20 12 129 12 129 -1 0 -7 3 -7 8 0 9 13 42 13 61 1 9 -6
12 -5 8 0 -7 12 133 11 152 -1 9 -5 12 -4 8 1 -7 12 133 11 152 -1 9 -5 12 -4
8 1 -7 12 133 11 152 -1 8 -5 12 -4 9 1 -4 5 32 9 82 9 57 0 86 -3 82 -10 -3
-5 1 -4 10 3 11 9 18 10 23 2 3 -6 11 -8 16 -4 5 3 21 7 35 10 18 3 23 1 18
-7 -5 -8 -3 -9 7 -3 21 13 139 13 132 0 -4 -6 0 -5 9 2 11 9 18 10 23 2 3 -6
11 -8 16 -4 5 3 21 7 35 10 19 3 24 1 18 -8 -6 -10 -4 -10 7 -2 8 6 37 10 65
9 l51 -1 0 208 1 208 -1439 0 -1439 0 2 -212z"/>
<path d="M80 1875 c0 -198 1 -205 21 -216 13 -6 19 -7 15 -1 -7 11 42 11 60
-1 6 -3 14 -3 18 0 11 11 50 11 70 1 11 -6 16 -6 12 0 -7 11 94 9 114 -3 7 -5
11 -4 7 1 -6 11 162 12 179 1 6 -3 14 -3 18 0 11 11 50 11 70 1 10 -6 16 -6
13 -1 -7 11 175 9 193 -2 8 -5 11 -4 7 2 -7 11 82 11 99 0 6 -3 14 -3 18 0 11
11 50 11 70 1 12 -7 16 -7 12 0 -7 11 42 11 60 -1 6 -3 14 -3 18 0 11 11 50
11 70 1 11 -6 16 -6 12 0 -7 11 94 9 114 -3 7 -5 11 -4 7 1 -3 5 35 9 88 9 51
0 91 -3 89 -6 -1 -3 3 -6 11 -6 8 0 12 4 9 8 -6 10 59 5 76 -6 8 -5 11 -4 7 1
-7 12 174 11 193 -1 8 -5 11 -4 7 2 -7 11 82 11 99 0 6 -3 14 -3 18 0 11 11
50 11 70 1 12 -7 16 -7 12 0 -7 11 42 11 60 -1 6 -3 14 -3 18 0 11 11 50 11
70 1 11 -6 16 -6 12 0 -7 11 94 9 114 -3 7 -5 11 -4 7 1 -3 5 35 9 88 9 51 0
91 -3 89 -6 -1 -3 3 -6 11 -6 8 0 12 4 9 8 -6 10 59 5 76 -6 8 -5 11 -4 7 1
-7 12 174 11 193 -1 8 -5 11 -4 7 2 -8 13 86 11 95 -2 5 -6 8 -6 8 1 0 6 7 11
15 11 8 0 15 -4 15 -9 0 -5 7 -3 15 5 12 12 14 52 13 215 l-1 200 -1438 0
-1439 0 0 -203z"/>
<path d="M4050 1870 l0 -208 40 2 c23 2 40 -2 40 -8 0 -8 3 -8 8 -1 8 13 71
13 91 1 9 -6 12 -5 8 0 -8 13 176 12 185 -1 5 -7 8 -6 8 0 0 14 100 13 100 0
0 -7 3 -7 8 0 4 6 43 10 87 10 44 0 83 -4 87 -10 5 -7 8 -7 8 0 0 12 99 13
118 2 6 -5 12 -4 12 0 0 10 131 10 148 -1 6 -4 12 -3 12 1 0 10 131 10 148 -1
6 -4 12 -3 12 1 0 10 131 10 148 -1 6 -4 12 -3 12 1 0 12 174 10 182 -2 5 -7
8 -7 8 0 0 9 75 13 105 5 6 -1 12 -1 15 0 17 6 52 5 56 -2 3 -4 11 -5 17 -1
18 11 97 10 97 -2 0 -5 4 -4 9 3 9 15 17 15 43 1 9 -5 19 -6 21 -1 6 9 98 9
113 -1 6 -3 14 -3 18 0 10 11 70 9 78 -2 5 -6 8 -5 8 4 0 11 3 11 15 1 8 -7
15 -8 15 -3 0 5 18 9 40 9 22 -1 40 -5 40 -11 0 -5 4 -4 9 3 4 8 12 14 16 14
4 0 12 -6 16 -14 7 -11 9 -11 9 1 0 11 3 11 15 1 8 -7 15 -8 15 -3 0 13 73 11
82 -2 5 -7 8 -6 8 0 0 12 79 13 97 2 5 -3 13 -3 17 0 10 10 68 10 88 1 9 -4
19 -4 22 0 6 10 36 9 52 -1 6 -3 14 -4 18 0 11 11 96 10 96 -2 0 -5 4 -4 9 3
9 15 17 15 43 1 10 -6 19 -5 23 1 4 7 13 7 26 0 13 -8 19 -7 19 0 0 6 8 10 18
8 16 -3 17 12 17 202 l0 205 -1437 2 -1438 1 0 -208z"/>
</g>
</svg>
