<?xml version="1.0" encoding="utf-8"?>
<!-- Generator: Adobe Illustrator 22.1.0, SVG Export Plug-In . SVG Version: 6.00 Build 0)  -->
<svg version="1.1" id="Layer_1" xmlns="http://www.w3.org/2000/svg" xmlns:xlink="http://www.w3.org/1999/xlink" x="0px" y="0px"
	 viewBox="0 0 341.7 33.1" style="enable-background:new 0 0 341.7 33.1;" xml:space="preserve">
<style type="text/css">
	.st0{fill:#4164AE;}
	.st1{fill:#777777;}
</style>
<g>
	<g>
		<path class="st0" d="M230.4,8.4C229,6,227,4.2,224.5,2.8c-2.5-1.3-5.3-2-8.5-2h-4v5.3h3.9c2,0,3.7,0.4,5.3,1.3
			c1.6,0.9,2.8,2.1,3.7,3.8c0.9,1.6,1.4,3.4,1.4,5.5c0,2-0.4,3.8-1.3,5.4c-0.9,1.6-2.1,2.8-3.6,3.7c-1.6,0.9-3.3,1.3-5.2,1.3h-4.1
			v5.3h3.7c3.2,0,6.1-0.7,8.6-2c2.5-1.4,4.5-3.2,5.9-5.6c1.4-2.4,2.1-5.1,2.1-8.2C232.5,13.6,231.8,10.9,230.4,8.4z"/>
		<polygon class="st0" points="209,27.1 208.9,27.1 208.9,6.1 209,6.1 209,0.8 202.9,0.8 202.9,32.5 209,32.5 		"/>
	</g>
	<path class="st1" d="M252.2,4.1c-1.5-0.4-3-0.7-4.3-0.7c-2.2,0-3.9,0.4-5.2,1.3c-1.3,0.9-2,2-2,3.5c0,1.3,0.4,2.4,1.1,3.2
		s1.6,1.5,2.7,1.9c1.1,0.5,2.5,1,4.3,1.6c2.1,0.6,3.9,1.3,5.2,1.9c1.3,0.6,2.4,1.5,3.3,2.7c0.9,1.2,1.4,2.7,1.4,4.7
		c0,1.7-0.5,3.2-1.4,4.5c-1,1.3-2.3,2.3-4,3c-1.7,0.7-3.7,1.1-5.9,1.1c-2.2,0-4.4-0.4-6.4-1.3c-2.1-0.9-3.9-2-5.4-3.5l1.4-2.6
		c1.4,1.4,3.1,2.5,4.9,3.3c1.9,0.8,3.7,1.2,5.5,1.2c2.4,0,4.3-0.5,5.7-1.5c1.4-1,2.1-2.3,2.1-4c0-1.3-0.4-2.4-1.1-3.3
		c-0.7-0.8-1.6-1.5-2.7-1.9c-1.1-0.5-2.5-1-4.4-1.6c-2.1-0.7-3.9-1.3-5.2-1.9c-1.3-0.6-2.4-1.5-3.3-2.6c-0.9-1.2-1.4-2.7-1.4-4.5
		c0-1.6,0.5-3,1.4-4.2c0.9-1.2,2.2-2.1,3.8-2.8c1.6-0.6,3.5-1,5.7-1c1.7,0,3.4,0.3,5.2,0.8c1.7,0.5,3.3,1.2,4.6,2L256.5,6
		C255.2,5.2,253.8,4.6,252.2,4.1z"/>
	<path class="st1" d="M266.4,0.8h3.1v14.5h19.8V0.8h3.1v31.6h-3.1V18.1h-19.8v14.3h-3.1V0.8z"/>
	<path class="st1" d="M302.4,0.8h3.1v31.6h-3.1V0.8z"/>
	<path class="st1" d="M336.2,3.6c2.1,1.8,3.2,4.4,3.2,7.8c0,3.5-1.1,6.2-3.2,8.1c-2.1,1.9-5.2,2.8-9.1,2.8h-8.6v10.2h-3.1V0.8h11.7
		C331.1,0.8,334.1,1.8,336.2,3.6z M334,17.4c1.6-1.4,2.5-3.4,2.5-5.9c0-2.5-0.8-4.5-2.4-5.8c-1.6-1.3-4-2-7-2h-8.4v15.8h8.4
		C330,19.4,332.3,18.7,334,17.4z"/>
	<g>
		<polygon class="st0" points="176.3,17.8 176.2,17.8 176.2,6.1 176.3,6.1 176.3,0.8 170.2,0.8 170.2,32.5 176.2,32.5 176.2,23.1 
			176.3,23.1 		"/>
		<path class="st0" d="M189.9,22c2.1-0.9,3.6-2.2,4.7-3.9c1.1-1.7,1.6-3.9,1.6-6.3c0-3.5-1.1-6.2-3.3-8.1c-2.2-1.9-5.4-2.9-9.5-2.9
			h-4v5.3h4c2.3,0,4,0.5,5.2,1.4c1.2,1,1.8,2.4,1.8,4.3c0,2-0.6,3.4-1.8,4.4c-1.2,1-3,1.5-5.2,1.5h-4v5.3h4c0.5,0,0.9,0,1.1,0
			l5.5,9.4h6.9L189.9,22z"/>
	</g>
	<polygon class="st0" points="151.4,20.6 143.7,20.6 149.3,7.3 154.8,20.6 154.8,20.6 157,25.8 157,25.8 159.8,32.5 166.3,32.5 
		152.6,0.8 146.3,0.8 132.4,32.5 138.7,32.5 141.5,25.8 153.6,25.8 	"/>
	<g>
		<polygon class="st0" points="125.2,28.8 134.7,0.8 128.4,0.8 122.7,20.3 		"/>
		<polygon class="st0" points="100.2,25.9 100.2,25.9 92.7,0.8 86.2,0.8 96.9,32.5 102.1,32.5 		"/>
		<polygon class="st0" points="121,26 113.6,0.8 107.6,0.8 101.8,20.4 104.2,28.6 110.4,8.4 117.7,32.5 123,32.5 		"/>
	</g>
	<g>
		<rect x="69.3" y="13.9" class="st0" width="12.2" height="5.3"/>
		<rect x="69.3" y="0.8" class="st0" width="14" height="5.3"/>
		<polygon class="st0" points="66.2,27.2 66.1,27.2 66.1,19.2 66.2,19.2 66.2,13.9 66.1,13.9 66.1,6.1 66.2,6.1 66.2,0.8 60.1,0.8 
			60.1,32.5 66.2,32.5 		"/>
		<rect x="69.3" y="27.2" class="st0" width="14.6" height="5.3"/>
	</g>
	<g>
		<path class="st0" d="M17.1,5.9C18,6.1,18.9,6.3,20,6.6c1.7,0.5,3.4,1.3,5,2.3l2.4-5.3c-1.6-1-3.4-1.8-5.4-2.4
			c-1.6-0.5-3.3-0.8-5-0.9V5.9z"/>
		<path class="st0" d="M9.1,17c1.3,0.6,2.9,1.2,4.9,1.8v-6.2c0,0-0.1,0-0.1,0c-0.9-0.4-1.6-0.9-2.2-1.4c-0.6-0.6-0.9-1.3-0.9-2.2
			c0-1,0.4-1.7,1.3-2.3c0.5-0.3,1.2-0.6,1.9-0.7V0.4c-1.5,0.2-2.9,0.5-4.2,1C8,2.2,6.6,3.2,5.6,4.6c-1,1.4-1.5,3-1.5,4.8
			c0,2,0.5,3.6,1.4,4.8C6.5,15.5,7.7,16.4,9.1,17z"/>
		<path class="st0" d="M26.3,18.5c-1-1.2-2.1-2.2-3.5-2.8c-1.4-0.6-3.1-1.3-5.3-1.9c-0.2,0-0.3-0.1-0.4-0.1v6.1
			c0.3,0.1,0.7,0.2,0.9,0.3c0.9,0.4,1.7,0.8,2.2,1.4c0.6,0.6,0.9,1.3,0.9,2.2c0,1.1-0.5,2-1.4,2.6c-0.7,0.5-1.6,0.8-2.6,0.9v5.5
			c1.8-0.1,3.4-0.5,4.8-1.1c1.8-0.8,3.3-1.8,4.3-3.3c1-1.4,1.6-3.1,1.6-5C27.7,21.3,27.3,19.7,26.3,18.5z"/>
		<path class="st0" d="M14,27.2c-1.2-0.2-2.5-0.6-3.8-1.1c-2-0.8-3.8-2-5.4-3.5l-2.5,5.2C4,29.3,6,30.5,8.4,31.4
			c1.8,0.7,3.7,1.1,5.6,1.3V27.2z"/>
	</g>
	<g>
		<polygon class="st0" points="39.8,6.2 45.9,6.2 45.9,6.2 55.8,6.2 55.8,0.8 30,0.8 30,6.2 39.8,6.2 		"/>
		<rect x="39.8" y="9.3" class="st0" width="6.1" height="23.2"/>
	</g>
</g>
</svg>
