<?xml version="1.0" encoding="utf-8"?>
<!-- Generator: Adobe Illustrator 22.1.0, SVG Export Plug-In . SVG Version: 6.00 Build 0)  -->
<svg version="1.1" id="Layer_1" xmlns="http://www.w3.org/2000/svg" xmlns:xlink="http://www.w3.org/1999/xlink" x="0px" y="0px"
	 viewBox="0 0 500 500" style="enable-background:new 0 0 500 500;" xml:space="preserve">
<style type="text/css">
	.st0{opacity:0.3;enable-background:new    ;}
	.st1{fill:#9500FF;}
	.st2{fill:#4164AE;}
	.st3{opacity:0.5;enable-background:new    ;}
	.st4{fill:#FFFFFF;}
	.st5{fill:url(#SVGID_1_);}
</style>
<path class="st0" d="M289.2,264.7v-29.3h205.5v29.3H289.2z M494.7,323.3V294H289.2v29.3H494.7z M494.7,381.9v-29.3H289.2v29.3H494.7
	z M211.3,264.7v-29.3H5.8v29.3H211.3z M211.3,323.3V294H5.8v29.3H211.3z M211.3,381.9v-29.3H5.8v29.3H211.3z M362.8,117.2
	c-2.3,0-4.6,0.1-6.9,0.3c-2.9-27.7-13.6-51.3-31.4-68.7c-18.8-18.3-44.1-28.4-71.2-28.4S200.8,30.5,182,48.9
	c-11.3,11-19.7,24.5-25.1,39.9c-14.6-0.3-29.3,2.5-42.9,8.8c-39.4,18.1-62,59-62,112.2h19.3c0-45.4,18.5-79.9,50.8-94.7
	c20.5-9.4,43.9-9.3,64.3-0.6l11.7-15.9c-7.2-3.4-14.7-6-22.4-7.7c14.3-35.6,46.8-52.2,77.6-52.2c22.3,0,43,8.3,58.4,23.2
	c15,14.6,23.9,34.8,26.1,58.9c-10.4,3.2-20.1,8.4-28.5,15.3l16.7,10.3c10.6-7.1,23.3-11,36.7-11c32.2,0,66.8,23.2,66.8,74.3h18.3
	C447.9,149,405.1,117.2,362.8,117.2z M265.9,127.9h24.7l-40.4-40.4l-40.4,40.4h24.7v259.4L209.8,412v76.4l40.4-40.4l40.4,40.4V412
	l-24.7-24.7V127.9z"/>
<rect x="289.2" y="234.4" class="st1" width="205.5" height="29.3"/>
<rect x="289.2" y="293" class="st1" width="205.5" height="29.3"/>
<rect x="289.2" y="351.6" class="st1" width="205.5" height="29.3"/>
<rect x="5.8" y="234.4" class="st1" width="205.5" height="29.3"/>
<rect x="5.8" y="293" class="st1" width="205.5" height="29.3"/>
<rect x="5.8" y="351.6" class="st1" width="205.5" height="29.3"/>
<path class="st1" d="M362.8,116.2c-2.3,0-4.6,0.1-6.9,0.3c-2.9-27.7-13.6-51.3-31.4-68.7c-18.8-18.3-44.1-28.4-71.2-28.4
	S200.8,29.5,182,47.8c-11.3,11-19.7,24.5-25.1,39.9c-14.6-0.3-29.3,2.5-42.9,8.8c-39.4,18.1-62,59-62,112.2h19.3
	c0-45.4,18.5-79.9,50.8-94.7c20.5-9.4,43.9-9.3,64.3-0.6l11.7-15.9c-7.2-3.4-14.7-6-22.4-7.7c14.3-35.6,46.8-52.2,77.6-52.2
	c22.3,0,43,8.3,58.4,23.2c15,14.6,23.9,34.8,26.1,58.9c-10.4,3.2-20.1,8.4-28.5,15.3l16.7,10.3c10.6-7.1,23.3-11,36.7-11
	c32.2,0,66.8,23.2,66.8,74.3h18.3C447.9,148,405.1,116.2,362.8,116.2z"/>
<polygon class="st2" points="265.9,126.9 290.7,126.9 250.2,86.5 209.8,126.9 234.5,126.9 234.5,386.3 209.8,411 209.8,487.4 
	250.2,447 290.7,487.4 290.7,411 265.9,386.3 "/>
<g class="st3">
	<path class="st4" d="M176.2,90c-0.2,0.4-0.3,0.8-0.5,1.2c7.5,1.6,14.7,4.1,21.7,7.3l0.7-1C191.1,94.2,183.7,91.7,176.2,90z"/>
	<polygon class="st4" points="209.8,412.3 234.5,387.6 234.5,386.3 209.8,411 	"/>
	<rect x="5.8" y="234.4" class="st4" width="205.5" height="1.3"/>
	<path class="st4" d="M114,97.9c13.7-6.3,28.3-9.1,42.9-8.8c5.4-15.4,13.8-28.9,25.1-39.9c18.8-18.3,44.1-28.4,71.2-28.4
		c27.1,0,52.4,10.1,71.2,28.4c17.8,17.4,28.5,40.9,31.4,68.7c2.3-0.2,4.6-0.3,6.9-0.3c42,0,84.5,31.4,85.1,91.3h0
		c0-60.8-42.8-92.6-85.1-92.6c-2.3,0-4.6,0.1-6.9,0.3c-2.9-27.7-13.6-51.3-31.4-68.7c-18.8-18.3-44.1-28.4-71.2-28.4
		c-27.1,0-52.4,10.1-71.2,28.4c-11.3,11-19.7,24.5-25.1,39.9c-14.6-0.3-29.3,2.5-42.9,8.8c-39.4,18.1-62,59-62,112.2h0
		C52.4,156.2,74.9,115.8,114,97.9z"/>
	<polygon class="st4" points="250.2,86.5 209.8,126.9 211.1,126.9 250.2,87.8 289.3,126.9 290.7,126.9 	"/>
	<path class="st4" d="M337.6,119.9c-10.4,3.2-20,8.3-28.3,15.3l0.9,0.6c8.2-6.6,17.5-11.5,27.6-14.6
		C337.7,120.8,337.7,120.4,337.6,119.9z"/>
	<rect x="289.2" y="293" class="st4" width="205.5" height="1.3"/>
	<rect x="289.2" y="234.4" class="st4" width="205.5" height="1.3"/>
	<rect x="289.2" y="351.6" class="st4" width="205.5" height="1.3"/>
	<polygon class="st4" points="265.9,387.6 290.7,412.3 290.7,411 265.9,386.3 	"/>
	<rect x="5.8" y="351.6" class="st4" width="205.5" height="1.3"/>
	<rect x="5.8" y="293" class="st4" width="205.5" height="1.3"/>
</g>
<linearGradient id="SVGID_1_" gradientUnits="userSpaceOnUse" x1="5.8235" y1="253.4" x2="494.7157" y2="253.4">
	<stop  offset="0" style="stop-color:#000000;stop-opacity:0"/>
	<stop  offset="1" style="stop-color:#000000;stop-opacity:0.2"/>
</linearGradient>
<path class="st5" d="M289.2,263.7v-29.3h205.5v29.3H289.2z M494.7,322.3V293H289.2v29.3H494.7z M494.7,380.9v-29.3H289.2v29.3H494.7
	z M211.3,263.7v-29.3H5.8v29.3H211.3z M211.3,322.3V293H5.8v29.3H211.3z M211.3,380.9v-29.3H5.8v29.3H211.3z M362.8,116.2
	c-2.3,0-4.6,0.1-6.9,0.3c-2.9-27.7-13.6-51.3-31.4-68.7c-18.8-18.3-44.1-28.4-71.2-28.4S200.8,29.5,182,47.8
	c-11.3,11-19.7,24.5-25.1,39.9c-14.6-0.3-29.3,2.5-42.9,8.8c-39.4,18.1-62,59-62,112.2h19.3c0-45.4,18.5-79.9,50.8-94.7
	c20.5-9.4,43.9-9.3,64.3-0.6l11.7-15.9c-7.2-3.4-14.7-6-22.4-7.7c14.3-35.6,46.8-52.2,77.6-52.2c22.3,0,43,8.3,58.4,23.2
	c15,14.6,23.9,34.8,26.1,58.9c-10.4,3.2-20.1,8.4-28.5,15.3l16.7,10.3c10.6-7.1,23.3-11,36.7-11c32.2,0,66.8,23.2,66.8,74.3h18.3
	C447.9,148,405.1,116.2,362.8,116.2z M265.9,126.9h24.7l-40.4-40.4l-40.4,40.4h24.7v259.4L209.8,411v76.4l40.4-40.4l40.4,40.4V411
	l-24.7-24.7V126.9z"/>
</svg>
